<svg xmlns="http://www.w3.org/2000/svg" width="480" height="150" viewBox="0 0 480 150" role="img" aria-labelledby="art-title art-desc"><title id="art-title">Generated header for 2026-09-21</title><desc id="art-desc">24 contour lines shaped by 2 peaks, drawn from the date 2026-09-21.</desc><style>text{font-family:ui-monospace,"SFMono-Regular",Consolas,monospace;font-variant-numeric:tabular-nums}</style><clipPath id="art-clip"><rect width="480" height="150" rx="12"/></clipPath><rect width="480" height="150" rx="12" fill="#0d1117"/><g clip-path="url(#art-clip)" fill="#0d1117" stroke-width="1.3"><path d="M-9.6,27.4L1.7,26.9L13.1,26.4L24.4,25.8L35.8,25.3L47.1,24.8L58.5,24.4L69.8,24.0L81.2,24.0L92.5,24.0L103.9,24.0L115.2,24.0L126.5,24.0L137.9,24.0L149.2,24.3L160.6,24.7L171.9,25.2L183.3,25.7L194.6,26.2L206.0,26.7L217.3,27.2L228.7,27.6L240.0,28.0L251.3,28.1L262.7,27.9L274.0,27.2L285.4,25.5L296.7,24.0L308.1,24.0L319.4,24.0L330.8,24.0L342.1,24.0L353.5,24.0L364.8,24.0L376.1,24.0L387.5,24.0L398.8,24.0L410.2,24.0L421.5,24.0L432.9,24.0L444.2,24.0L455.6,24.0L466.9,24.0L478.3,24.0L489.6,24.3L489.6,174L-9.6,174Z" stroke="#b1bac4" stroke-opacity="0.30"/><path d="M-9.6,31.3L1.7,30.8L13.1,30.3L24.4,29.7L35.8,29.2L47.1,28.7L58.5,28.3L69.8,27.9L81.2,27.6L92.5,27.5L103.9,27.4L115.2,27.4L126.5,27.6L137.9,27.8L149.2,28.2L160.6,28.6L171.9,29.1L183.3,29.6L194.6,30.1L206.0,30.6L217.3,31.1L228.7,31.6L240.0,31.9L251.3,32.0L262.7,31.7L274.0,30.8L285.4,28.8L296.7,25.4L308.1,24.0L319.4,24.0L330.8,24.0L342.1,24.0L353.5,24.0L364.8,24.0L376.1,24.0L387.5,24.0L398.8,24.0L410.2,24.0L421.5,24.0L432.9,24.8L444.2,26.3L455.6,27.0L466.9,27.5L478.3,27.8L489.6,28.2L489.6,174L-9.6,174Z" stroke="#b1bac4" stroke-opacity="0.32"/><path d="M-9.6,35.2L1.7,34.7L13.1,34.2L24.4,33.7L35.8,33.1L47.1,32.6L58.5,32.2L69.8,31.8L81.2,31.5L92.5,31.4L103.9,31.3L115.2,31.3L126.5,31.5L137.9,31.7L149.2,32.1L160.6,32.5L171.9,33.0L183.3,33.5L194.6,34.0L206.0,34.6L217.3,35.0L228.7,35.5L240.0,35.8L251.3,35.9L262.7,35.5L274.0,34.4L285.4,32.2L296.7,28.4L308.1,24.0L319.4,24.0L330.8,24.0L342.1,24.0L353.5,24.0L364.8,24.0L376.1,24.0L387.5,24.0L398.8,24.0L410.2,24.0L421.5,25.7L432.9,28.6L444.2,30.2L455.6,30.9L466.9,31.4L478.3,31.8L489.6,32.1L489.6,174L-9.6,174Z" stroke="#3fb950" stroke-opacity="0.75"/><path d="M-9.6,39.1L1.7,38.6L13.1,38.1L24.4,37.6L35.8,37.0L47.1,36.6L58.5,36.1L69.8,35.7L81.2,35.5L92.5,35.3L103.9,35.2L115.2,35.2L126.5,35.4L137.9,35.7L149.2,36.0L160.6,36.4L171.9,36.9L183.3,37.4L194.6,37.9L206.0,38.5L217.3,39.0L228.7,39.4L240.0,39.7L251.3,39.7L262.7,39.3L274.0,38.0L285.4,35.5L296.7,31.6L308.1,26.1L319.4,24.0L330.8,24.0L342.1,24.0L353.5,24.0L364.8,24.0L376.1,24.0L387.5,24.0L398.8,24.0L410.2,25.1L421.5,29.8L432.9,32.6L444.2,34.1L455.6,34.9L466.9,35.3L478.3,35.7L489.6,36.1L489.6,174L-9.6,174Z" stroke="#b1bac4" stroke-opacity="0.37"/><path d="M-9.6,43.0L1.7,42.5L13.1,42.0L24.4,41.5L35.8,41.0L47.1,40.5L58.5,40.0L69.8,39.7L81.2,39.4L92.5,39.2L103.9,39.1L115.2,39.2L126.5,39.3L137.9,39.6L149.2,39.9L160.6,40.3L171.9,40.8L183.3,41.3L194.6,41.9L206.0,42.4L217.3,42.9L228.7,43.3L240.0,43.6L251.3,43.6L262.7,43.0L274.0,41.6L285.4,38.8L296.7,34.8L308.1,29.5L319.4,24.0L330.8,24.0L342.1,24.0L353.5,24.0L364.8,24.0L376.1,24.0L387.5,24.0L398.8,24.0L410.2,29.9L421.5,34.2L432.9,36.7L444.2,38.1L455.6,38.8L466.9,39.2L478.3,39.6L489.6,40.0L489.6,174L-9.6,174Z" stroke="#b1bac4" stroke-opacity="0.40"/><path d="M-9.6,46.9L1.7,46.4L13.1,45.9L24.4,45.4L35.8,44.9L47.1,44.4L58.5,43.9L69.8,43.6L81.2,43.3L92.5,43.1L103.9,43.0L115.2,43.1L126.5,43.2L137.9,43.5L149.2,43.8L160.6,44.2L171.9,44.7L183.3,45.2L194.6,45.8L206.0,46.3L217.3,46.8L228.7,47.2L240.0,47.5L251.3,47.4L262.7,46.7L274.0,45.1L285.4,42.1L296.7,37.9L308.1,33.0L319.4,27.8L330.8,24.0L342.1,24.0L353.5,24.0L364.8,24.0L376.1,24.0L387.5,24.0L398.8,29.9L410.2,35.1L421.5,38.7L432.9,41.0L444.2,42.2L455.6,42.8L466.9,43.2L478.3,43.5L489.6,43.9L489.6,174L-9.6,174Z" stroke="#b1bac4" stroke-opacity="0.42"/><path d="M-9.6,50.8L1.7,50.4L13.1,49.8L24.4,49.3L35.8,48.8L47.1,48.3L58.5,47.9L69.8,47.5L81.2,47.2L92.5,47.0L103.9,46.9L115.2,47.0L126.5,47.1L137.9,47.4L149.2,47.7L160.6,48.2L171.9,48.6L183.3,49.2L194.6,49.7L206.0,50.2L217.3,50.7L228.7,51.1L240.0,51.3L251.3,51.2L262.7,50.4L274.0,48.5L285.4,45.2L296.7,40.9L308.1,36.4L319.4,32.3L330.8,28.7L342.1,25.8L353.5,24.1L364.8,24.5L376.1,27.1L387.5,31.5L398.8,36.3L410.2,40.5L421.5,43.5L432.9,45.3L444.2,46.2L455.6,46.7L466.9,47.1L478.3,47.4L489.6,47.8L489.6,174L-9.6,174Z" stroke="#b1bac4" stroke-opacity="0.44"/><path d="M-9.6,54.7L1.7,54.3L13.1,53.8L24.4,53.2L35.8,52.7L47.1,52.2L58.5,51.8L69.8,51.4L81.2,51.1L92.5,50.9L103.9,50.9L115.2,50.9L126.5,51.1L137.9,51.3L149.2,51.6L160.6,52.1L171.9,52.6L183.3,53.1L194.6,53.6L206.0,54.1L217.3,54.6L228.7,55.0L240.0,55.2L251.3,55.0L262.7,54.1L274.0,51.8L285.4,48.2L296.7,43.7L308.1,39.6L319.4,36.6L330.8,34.6L342.1,33.4L353.5,32.9L364.8,33.6L376.1,35.7L387.5,39.1L398.8,42.8L410.2,45.9L421.5,48.2L432.9,49.6L444.2,50.3L455.6,50.7L466.9,51.0L478.3,51.3L489.6,51.7L489.6,174L-9.6,174Z" stroke="#b1bac4" stroke-opacity="0.47"/><path d="M-9.6,58.7L1.7,58.2L13.1,57.7L24.4,57.1L35.8,56.6L47.1,56.1L58.5,55.7L69.8,55.3L81.2,55.0L92.5,54.8L103.9,54.8L115.2,54.8L126.5,55.0L137.9,55.2L149.2,55.6L160.6,56.0L171.9,56.5L183.3,57.0L194.6,57.5L206.0,58.0L217.3,58.5L228.7,58.9L240.0,59.1L251.3,58.8L262.7,57.7L274.0,55.1L285.4,51.0L296.7,46.3L308.1,42.4L319.4,40.5L330.8,40.1L342.1,40.6L353.5,41.2L364.8,42.2L376.1,44.0L387.5,46.4L398.8,49.0L410.2,51.3L421.5,52.9L432.9,53.8L444.2,54.4L455.6,54.7L466.9,55.0L478.3,55.3L489.6,55.6L489.6,174L-9.6,174Z" stroke="#b1bac4" stroke-opacity="0.49"/><path d="M-9.6,62.6L1.7,62.1L13.1,61.6L24.4,61.1L35.8,60.5L47.1,60.0L58.5,59.6L69.8,59.2L81.2,58.9L92.5,58.8L103.9,58.7L115.2,58.7L126.5,58.9L137.9,59.1L149.2,59.5L160.6,59.9L171.9,60.4L183.3,60.9L194.6,61.4L206.0,61.9L217.3,62.4L228.7,62.8L240.0,63.0L251.3,62.6L262.7,61.2L274.0,58.2L285.4,53.6L296.7,48.5L308.1,44.9L319.4,43.8L330.8,45.0L342.1,47.0L353.5,48.8L364.8,50.1L376.1,51.6L387.5,53.2L398.8,55.0L410.2,56.4L421.5,57.4L432.9,58.1L444.2,58.4L455.6,58.6L466.9,58.9L478.3,59.2L489.6,59.5L489.6,174L-9.6,174Z" stroke="#b1bac4" stroke-opacity="0.52"/><path d="M-9.6,66.5L1.7,66.0L13.1,65.5L24.4,65.0L35.8,64.4L47.1,63.9L58.5,63.5L69.8,63.1L81.2,62.9L92.5,62.7L103.9,62.6L115.2,62.6L126.5,62.8L137.9,63.0L149.2,63.4L160.6,63.8L171.9,64.3L183.3,64.8L194.6,65.3L206.0,65.9L217.3,66.3L228.7,66.7L240.0,66.9L251.3,66.4L262.7,64.8L274.0,61.3L285.4,56.1L296.7,50.6L308.1,46.9L319.4,46.6L330.8,49.2L342.1,52.6L353.5,55.3L364.8,57.1L376.1,58.3L387.5,59.4L398.8,60.4L410.2,61.3L421.5,61.9L432.9,62.2L444.2,62.4L455.6,62.6L466.9,62.8L478.3,63.1L489.6,63.5L489.6,174L-9.6,174Z" stroke="#b1bac4" stroke-opacity="0.54"/><path d="M-9.6,70.4L1.7,69.9L13.1,69.4L24.4,68.9L35.8,68.4L47.1,67.9L58.5,67.4L69.8,67.0L81.2,66.8L92.5,66.6L103.9,66.5L115.2,66.6L126.5,66.7L137.9,67.0L149.2,67.3L160.6,67.7L171.9,68.2L183.3,68.7L194.6,69.3L206.0,69.8L217.3,70.3L228.7,70.6L240.0,70.7L251.3,70.2L262.7,68.3L274.0,64.4L285.4,58.5L296.7,52.5L308.1,48.7L319.4,49.1L330.8,52.7L342.1,57.4L353.5,61.0L364.8,63.2L376.1,64.3L387.5,64.9L398.8,65.5L410.2,65.9L421.5,66.1L432.9,66.3L444.2,66.4L455.6,66.5L466.9,66.7L478.3,67.0L489.6,67.4L489.6,174L-9.6,174Z" stroke="#b1bac4" stroke-opacity="0.56"/><path d="M-9.6,74.3L1.7,73.8L13.1,73.3L24.4,72.8L35.8,72.3L47.1,71.8L58.5,71.3L69.8,71.0L81.2,70.7L92.5,70.5L103.9,70.4L115.2,70.5L126.5,70.6L137.9,70.9L149.2,71.2L160.6,71.6L171.9,72.1L183.3,72.6L194.6,73.2L206.0,73.7L217.3,74.2L228.7,74.5L240.0,74.6L251.3,73.9L262.7,71.8L274.0,67.4L285.4,61.0L296.7,54.3L308.1,50.5L319.4,51.2L330.8,55.9L342.1,61.6L353.5,66.0L364.8,68.5L376.1,69.5L387.5,70.0L398.8,70.1L410.2,70.2L421.5,70.3L432.9,70.3L444.2,70.4L455.6,70.5L466.9,70.6L478.3,70.9L489.6,71.3L489.6,174L-9.6,174Z" stroke="#b1bac4" stroke-opacity="0.59"/><path d="M-9.6,78.2L1.7,77.8L13.1,77.2L24.4,76.7L35.8,76.2L47.1,75.7L58.5,75.2L69.8,74.9L81.2,74.6L92.5,74.4L103.9,74.3L115.2,74.4L126.5,74.5L137.9,74.8L149.2,75.1L160.6,75.5L171.9,76.0L183.3,76.5L194.6,77.1L206.0,77.6L217.3,78.1L228.7,78.4L240.0,78.5L251.3,77.7L262.7,75.4L274.0,70.6L285.4,63.5L296.7,56.3L308.1,52.3L319.4,53.4L330.8,58.8L342.1,65.3L353.5,70.4L364.8,73.2L376.1,74.3L387.5,74.6L398.8,74.5L410.2,74.5L421.5,74.4L432.9,74.3L444.2,74.3L455.6,74.4L466.9,74.6L478.3,74.8L489.6,75.2L489.6,174L-9.6,174Z" stroke="#b1bac4" stroke-opacity="0.61"/><path d="M-9.6,82.1L1.7,81.7L13.1,81.1L24.4,80.6L35.8,80.1L47.1,79.6L58.5,79.2L69.8,78.8L81.2,78.5L92.5,78.3L103.9,78.3L115.2,78.3L126.5,78.4L137.9,78.7L149.2,79.0L160.6,79.5L171.9,79.9L183.3,80.5L194.6,81.0L206.0,81.5L217.3,82.0L228.7,82.3L240.0,82.4L251.3,81.5L262.7,79.0L274.0,73.9L285.4,66.3L296.7,58.6L308.1,54.3L319.4,55.7L330.8,61.7L342.1,68.9L353.5,74.5L364.8,77.6L376.1,78.7L387.5,78.9L398.8,78.7L410.2,78.5L421.5,78.4L432.9,78.3L444.2,78.2L455.6,78.3L466.9,78.5L478.3,78.7L489.6,79.1L489.6,174L-9.6,174Z" stroke="#b1bac4" stroke-opacity="0.63"/><path d="M-9.6,86.1L1.7,85.6L13.1,85.1L24.4,84.5L35.8,84.0L47.1,83.5L58.5,83.1L69.8,82.7L81.2,82.4L92.5,82.2L103.9,82.2L115.2,82.2L126.5,82.4L137.9,82.6L149.2,83.0L160.6,83.4L171.9,83.9L183.3,84.4L194.6,84.9L206.0,85.4L217.3,85.9L228.7,86.2L240.0,86.2L251.3,85.4L262.7,82.7L274.0,77.3L285.4,69.3L296.7,61.2L308.1,56.8L319.4,58.3L330.8,64.7L342.1,72.5L353.5,78.4L364.8,81.7L376.1,82.9L387.5,83.0L398.8,82.8L410.2,82.5L421.5,82.3L432.9,82.2L444.2,82.2L455.6,82.2L466.9,82.4L478.3,82.7L489.6,83.0L489.6,174L-9.6,174Z" stroke="#b1bac4" stroke-opacity="0.66"/><path d="M-9.6,90.0L1.7,89.5L13.1,89.0L24.4,88.4L35.8,87.9L47.1,87.4L58.5,87.0L69.8,86.6L81.2,86.3L92.5,86.2L103.9,86.1L115.2,86.1L126.5,86.3L137.9,86.5L149.2,86.9L160.6,87.3L171.9,87.8L183.3,88.3L194.6,88.8L206.0,89.3L217.3,89.8L228.7,90.2L240.0,90.1L251.3,89.2L262.7,86.5L274.0,80.9L285.4,72.7L296.7,64.3L308.1,59.8L319.4,61.4L330.8,68.1L342.1,76.1L353.5,82.3L364.8,85.7L376.1,86.9L387.5,87.0L398.8,86.8L410.2,86.5L421.5,86.3L432.9,86.1L444.2,86.1L455.6,86.1L466.9,86.3L478.3,86.6L489.6,86.9L489.6,174L-9.6,174Z" stroke="#b1bac4" stroke-opacity="0.68"/><path d="M-9.6,93.9L1.7,93.4L13.1,92.9L24.4,92.4L35.8,91.8L47.1,91.3L58.5,90.9L69.8,90.5L81.2,90.2L92.5,90.1L103.9,90.0L115.2,90.0L126.5,90.2L137.9,90.4L149.2,90.8L160.6,91.2L171.9,91.7L183.3,92.2L194.6,92.7L206.0,93.3L217.3,93.7L228.7,94.1L240.0,94.1L251.3,93.1L262.7,90.3L274.0,84.7L285.4,76.4L296.7,68.0L308.1,63.4L319.4,65.0L330.8,71.8L342.1,80.0L353.5,86.2L364.8,89.7L376.1,90.9L387.5,91.0L398.8,90.8L410.2,90.4L421.5,90.2L432.9,90.0L444.2,90.0L455.6,90.0L466.9,90.2L478.3,90.5L489.6,90.8L489.6,174L-9.6,174Z" stroke="#b1bac4" stroke-opacity="0.71"/><path d="M-9.6,97.8L1.7,97.3L13.1,96.8L24.4,96.3L35.8,95.7L47.1,95.3L58.5,94.8L69.8,94.4L81.2,94.2L92.5,94.0L103.9,93.9L115.2,93.9L126.5,94.1L137.9,94.3L149.2,94.7L160.6,95.1L171.9,95.6L183.3,96.1L194.6,96.6L206.0,97.2L217.3,97.6L228.7,98.0L240.0,98.0L251.3,97.1L262.7,94.3L274.0,88.7L285.4,80.5L296.7,72.2L308.1,67.6L319.4,69.3L330.8,76.0L342.1,84.0L353.5,90.3L364.8,93.6L376.1,94.8L387.5,95.0L398.8,94.7L410.2,94.4L421.5,94.1L432.9,94.0L444.2,93.9L455.6,94.0L466.9,94.1L478.3,94.4L489.6,94.8L489.6,174L-9.6,174Z" stroke="#b1bac4" stroke-opacity="0.73"/><path d="M-9.6,101.7L1.7,101.2L13.1,100.7L24.4,100.2L35.8,99.7L47.1,99.2L58.5,98.7L69.8,98.4L81.2,98.1L92.5,97.9L103.9,97.8L115.2,97.9L126.5,98.0L137.9,98.3L149.2,98.6L160.6,99.0L171.9,99.5L183.3,100.0L194.6,100.6L206.0,101.1L217.3,101.5L228.7,101.9L240.0,101.9L251.3,101.0L262.7,98.3L274.0,92.9L285.4,85.0L296.7,76.9L308.1,72.5L319.4,74.1L330.8,80.6L342.1,88.4L353.5,94.4L364.8,97.6L376.1,98.8L387.5,98.9L398.8,98.6L410.2,98.3L421.5,98.0L432.9,97.9L444.2,97.8L455.6,97.9L466.9,98.0L478.3,98.3L489.6,98.7L489.6,174L-9.6,174Z" stroke="#b1bac4" stroke-opacity="0.75"/><path d="M-9.6,105.6L1.7,105.1L13.1,104.6L24.4,104.1L35.8,103.6L47.1,103.1L58.5,102.6L69.8,102.3L81.2,102.0L92.5,101.8L103.9,101.7L115.2,101.8L126.5,101.9L137.9,102.2L149.2,102.5L160.6,102.9L171.9,103.4L183.3,103.9L194.6,104.5L206.0,105.0L217.3,105.5L228.7,105.8L240.0,105.8L251.3,105.0L262.7,102.5L274.0,97.3L285.4,89.8L296.7,82.1L308.1,77.9L319.4,79.4L330.8,85.6L342.1,92.9L353.5,98.6L364.8,101.7L376.1,102.7L387.5,102.8L398.8,102.5L410.2,102.2L421.5,101.9L432.9,101.8L444.2,101.7L455.6,101.8L466.9,102.0L478.3,102.2L489.6,102.6L489.6,174L-9.6,174Z" stroke="#b1bac4" stroke-opacity="0.78"/><path d="M-9.6,109.5L1.7,109.1L13.1,108.5L24.4,108.0L35.8,107.5L47.1,107.0L58.5,106.5L69.8,106.2L81.2,105.9L92.5,105.7L103.9,105.6L115.2,105.7L126.5,105.8L137.9,106.1L149.2,106.4L160.6,106.9L171.9,107.3L183.3,107.9L194.6,108.4L206.0,108.9L217.3,109.4L228.7,109.7L240.0,109.8L251.3,109.0L262.7,106.7L274.0,101.9L285.4,94.9L296.7,87.8L308.1,83.8L319.4,85.2L330.8,90.9L342.1,97.7L353.5,103.0L364.8,105.8L376.1,106.7L387.5,106.7L398.8,106.4L410.2,106.1L421.5,105.9L432.9,105.7L444.2,105.6L455.6,105.7L466.9,105.9L478.3,106.1L489.6,106.5L489.6,174L-9.6,174Z" stroke="#b1bac4" stroke-opacity="0.80"/><path d="M-9.6,113.4L1.7,113.0L13.1,112.5L24.4,111.9L35.8,111.4L47.1,110.9L58.5,110.5L69.8,110.1L81.2,109.8L92.5,109.6L103.9,109.6L115.2,109.6L126.5,109.7L137.9,110.0L149.2,110.3L160.6,110.8L171.9,111.2L183.3,111.8L194.6,112.3L206.0,112.8L217.3,113.3L228.7,113.7L240.0,113.7L251.3,113.1L262.7,111.0L274.0,106.6L285.4,100.2L296.7,93.7L308.1,90.1L319.4,91.3L330.8,96.5L342.1,102.6L353.5,107.4L364.8,109.9L376.1,110.7L387.5,110.7L398.8,110.4L410.2,110.0L421.5,109.8L432.9,109.6L444.2,109.6L455.6,109.6L466.9,109.8L478.3,110.1L489.6,110.4L489.6,174L-9.6,174Z" stroke="#b1bac4" stroke-opacity="0.83"/><path d="M-9.6,117.4L1.7,116.9L13.1,116.4L24.4,115.8L35.8,115.3L47.1,114.8L58.5,114.4L69.8,114.0L81.2,113.7L92.5,113.5L103.9,113.5L115.2,113.5L126.5,113.7L137.9,113.9L149.2,114.3L160.6,114.7L171.9,115.2L183.3,115.7L194.6,116.2L206.0,116.7L217.3,117.2L228.7,117.6L240.0,117.7L251.3,117.1L262.7,115.3L274.0,111.4L285.4,105.7L296.7,99.9L308.1,96.7L319.4,97.7L330.8,102.2L342.1,107.7L353.5,111.8L364.8,114.0L376.1,114.7L387.5,114.6L398.8,114.3L410.2,113.9L421.5,113.7L432.9,113.5L444.2,113.5L455.6,113.5L466.9,113.7L478.3,114.0L489.6,114.3L489.6,174L-9.6,174Z" stroke="#b1bac4" stroke-opacity="0.85"/></g><text x="460" y="136" font-size="12" fill="#6e7681" text-anchor="end">2026-09-21</text></svg>
