<svg xmlns="http://www.w3.org/2000/svg" width="880" height="186" viewBox="0 0 880 186" role="img" aria-labelledby="art-title art-desc"><title id="art-title">Generated header for 2026-10-11</title><desc id="art-desc">19 contour lines shaped by 2 peaks, drawn from the date 2026-10-11.</desc><style>text{font-family:ui-monospace,"SFMono-Regular",Consolas,monospace;font-variant-numeric:tabular-nums}</style><clipPath id="art-clip"><rect width="880" height="186" rx="12"/></clipPath><rect width="880" height="186" rx="12" fill="#ffffff"/><g clip-path="url(#art-clip)" fill="#ffffff" stroke-width="1.3"><path d="M-17.6,25.4L-4.1,26.1L9.3,26.8L22.8,27.4L36.2,27.9L49.7,28.1L63.2,28.2L76.6,28.0L90.1,27.6L103.5,27.0L117.0,26.3L130.4,25.5L143.9,24.6L157.4,24.0L170.8,24.0L184.3,24.0L197.7,24.0L211.2,24.0L224.7,24.0L238.1,24.0L251.6,24.0L265.0,24.0L278.5,24.0L292.0,24.0L305.4,24.0L318.9,24.0L332.3,24.0L345.8,24.0L359.2,24.0L372.7,24.0L386.2,24.0L399.6,24.0L413.1,24.0L426.5,24.0L440.0,24.0L453.5,24.0L466.9,24.0L480.4,24.0L493.8,24.0L507.3,24.0L520.8,24.0L534.2,24.0L547.7,24.0L561.1,24.0L574.6,24.0L588.0,24.0L601.5,24.0L615.0,24.0L628.4,24.0L641.9,24.0L655.3,24.0L668.8,24.0L682.3,24.0L695.7,24.0L709.2,24.0L722.6,24.0L736.1,24.0L749.6,24.3L763.0,24.9L776.5,25.6L789.9,26.3L803.4,27.0L816.8,27.6L830.3,28.0L843.8,28.2L857.2,28.2L870.7,27.9L884.1,27.5L897.6,26.9L897.6,210L-17.6,210Z" stroke="#59636e" stroke-opacity="0.30"/><path d="M-17.6,33.1L-4.1,33.8L9.3,34.5L22.8,35.1L36.2,35.6L49.7,35.8L63.2,35.8L76.6,35.6L90.1,35.2L103.5,34.6L117.0,33.9L130.4,33.1L143.9,32.3L157.4,31.5L170.8,30.7L184.3,30.0L197.7,29.4L211.2,28.8L224.7,28.0L238.1,27.1L251.6,25.9L265.0,24.4L278.5,24.0L292.0,24.0L305.4,24.0L318.9,24.0L332.3,24.0L345.8,24.0L359.2,24.0L372.7,24.0L386.2,24.0L399.6,24.0L413.1,24.0L426.5,24.0L440.0,24.0L453.5,24.0L466.9,24.0L480.4,24.0L493.8,24.0L507.3,24.0L520.8,24.0L534.2,24.0L547.7,24.0L561.1,24.0L574.6,24.0L588.0,25.4L601.5,27.7L615.0,29.2L628.4,30.3L641.9,30.9L655.3,31.1L668.8,31.1L682.3,31.1L695.7,31.0L709.2,31.0L722.6,31.2L736.1,31.5L749.6,32.0L763.0,32.6L776.5,33.3L789.9,34.0L803.4,34.7L816.8,35.3L830.3,35.7L843.8,35.9L857.2,35.8L870.7,35.6L884.1,35.1L897.6,34.5L897.6,210L-17.6,210Z" stroke="#59636e" stroke-opacity="0.33"/><path d="M-17.6,40.8L-4.1,41.5L9.3,42.2L22.8,42.8L36.2,43.2L49.7,43.5L63.2,43.5L76.6,43.3L90.1,42.9L103.5,42.3L117.0,41.6L130.4,40.8L143.9,39.9L157.4,39.1L170.8,38.3L184.3,37.6L197.7,36.9L211.2,36.2L224.7,35.4L238.1,34.4L251.6,33.1L265.0,31.4L278.5,29.2L292.0,26.4L305.4,24.0L318.9,24.0L332.3,24.0L345.8,24.0L359.2,24.0L372.7,24.0L386.2,24.0L399.6,24.0L413.1,24.0L426.5,24.0L440.0,24.0L453.5,24.0L466.9,24.0L480.4,24.0L493.8,24.0L507.3,24.0L520.8,24.0L534.2,24.0L547.7,24.0L561.1,25.1L574.6,28.9L588.0,32.0L601.5,34.4L615.0,36.2L628.4,37.4L641.9,38.1L655.3,38.4L668.8,38.6L682.3,38.5L695.7,38.5L709.2,38.6L722.6,38.8L736.1,39.1L749.6,39.6L763.0,40.2L776.5,40.9L789.9,41.7L803.4,42.3L816.8,42.9L830.3,43.3L843.8,43.5L857.2,43.5L870.7,43.2L884.1,42.8L897.6,42.2L897.6,210L-17.6,210Z" stroke="#59636e" stroke-opacity="0.36"/><path d="M-17.6,48.4L-4.1,49.1L9.3,49.8L22.8,50.4L36.2,50.9L49.7,51.1L63.2,51.2L76.6,51.0L90.1,50.6L103.5,50.0L117.0,49.2L130.4,48.4L143.9,47.6L157.4,46.7L170.8,45.9L184.3,45.2L197.7,44.5L211.2,43.7L224.7,42.9L238.1,41.8L251.6,40.4L265.0,38.5L278.5,36.1L292.0,33.2L305.4,29.6L318.9,25.5L332.3,24.0L345.8,24.0L359.2,24.0L372.7,24.0L386.2,24.0L399.6,24.0L413.1,24.0L426.5,24.0L440.0,24.0L453.5,24.0L466.9,24.0L480.4,24.0L493.8,24.0L507.3,24.0L520.8,24.0L534.2,24.0L547.7,26.4L561.1,31.0L574.6,35.0L588.0,38.4L601.5,41.0L615.0,43.0L628.4,44.4L641.9,45.2L655.3,45.7L668.8,45.9L682.3,46.0L695.7,46.0L709.2,46.1L722.6,46.3L736.1,46.7L749.6,47.2L763.0,47.9L776.5,48.6L789.9,49.3L803.4,50.0L816.8,50.6L830.3,51.0L843.8,51.2L857.2,51.2L870.7,50.9L884.1,50.5L897.6,49.9L897.6,210L-17.6,210Z" stroke="#59636e" stroke-opacity="0.39"/><path d="M-17.6,56.1L-4.1,56.8L9.3,57.5L22.8,58.1L36.2,58.6L49.7,58.8L63.2,58.8L76.6,58.6L90.1,58.2L103.5,57.6L117.0,56.9L130.4,56.1L143.9,55.2L157.4,54.4L170.8,53.6L184.3,52.8L197.7,52.1L211.2,51.3L224.7,50.4L238.1,49.2L251.6,47.7L265.0,45.8L278.5,43.2L292.0,40.1L305.4,36.4L318.9,32.0L332.3,27.3L345.8,24.0L359.2,24.0L372.7,24.0L386.2,24.0L399.6,24.0L413.1,24.0L426.5,24.0L440.0,24.0L453.5,24.0L466.9,24.0L480.4,24.0L493.8,24.0L507.3,24.0L520.8,24.0L534.2,26.5L547.7,31.8L561.1,36.6L574.6,40.9L588.0,44.5L601.5,47.4L615.0,49.6L628.4,51.2L641.9,52.2L655.3,52.9L668.8,53.2L682.3,53.4L695.7,53.5L709.2,53.6L722.6,53.9L736.1,54.3L749.6,54.8L763.0,55.5L776.5,56.2L789.9,57.0L803.4,57.7L816.8,58.2L830.3,58.7L843.8,58.9L857.2,58.8L870.7,58.6L884.1,58.1L897.6,57.5L897.6,210L-17.6,210Z" stroke="#59636e" stroke-opacity="0.42"/><path d="M-17.6,63.8L-4.1,64.5L9.3,65.2L22.8,65.8L36.2,66.2L49.7,66.5L63.2,66.5L76.6,66.3L90.1,65.9L103.5,65.3L117.0,64.5L130.4,63.7L143.9,62.9L157.4,62.0L170.8,61.2L184.3,60.4L197.7,59.7L211.2,58.8L224.7,57.9L238.1,56.7L251.6,55.1L265.0,53.1L278.5,50.5L292.0,47.2L305.4,43.3L318.9,38.8L332.3,33.7L345.8,28.4L359.2,24.0L372.7,24.0L386.2,24.0L399.6,24.0L413.1,24.0L426.5,24.0L440.0,24.0L453.5,24.0L466.9,24.0L480.4,24.0L493.8,24.0L507.3,24.0L520.8,25.5L534.2,31.1L547.7,36.7L561.1,41.8L574.6,46.4L588.0,50.3L601.5,53.5L615.0,56.0L628.4,57.8L641.9,59.1L655.3,59.9L668.8,60.4L682.3,60.6L695.7,60.9L709.2,61.1L722.6,61.4L736.1,61.9L749.6,62.4L763.0,63.1L776.5,63.9L789.9,64.6L803.4,65.3L816.8,65.9L830.3,66.3L843.8,66.5L857.2,66.5L870.7,66.2L884.1,65.8L897.6,65.2L897.6,210L-17.6,210Z" stroke="#2da44e" stroke-opacity="0.75"/><path d="M-17.6,71.4L-4.1,72.1L9.3,72.8L22.8,73.4L36.2,73.9L49.7,74.1L63.2,74.2L76.6,74.0L90.1,73.6L103.5,73.0L117.0,72.2L130.4,71.4L143.9,70.5L157.4,69.7L170.8,68.8L184.3,68.1L197.7,67.3L211.2,66.4L224.7,65.4L238.1,64.2L251.6,62.6L265.0,60.4L278.5,57.7L292.0,54.3L305.4,50.2L318.9,45.5L332.3,40.2L345.8,34.6L359.2,28.9L372.7,24.0L386.2,24.0L399.6,24.0L413.1,24.0L426.5,24.0L440.0,24.0L453.5,24.0L466.9,24.0L480.4,24.0L493.8,24.0L507.3,24.0L520.8,29.3L534.2,35.2L547.7,41.0L561.1,46.5L574.6,51.4L588.0,55.7L601.5,59.2L615.0,62.0L628.4,64.1L641.9,65.7L655.3,66.7L668.8,67.4L682.3,67.8L695.7,68.2L709.2,68.5L722.6,68.9L736.1,69.4L749.6,70.0L763.0,70.7L776.5,71.5L789.9,72.3L803.4,73.0L816.8,73.6L830.3,74.0L843.8,74.2L857.2,74.2L870.7,73.9L884.1,73.5L897.6,72.9L897.6,210L-17.6,210Z" stroke="#59636e" stroke-opacity="0.48"/><path d="M-17.6,79.1L-4.1,79.8L9.3,80.5L22.8,81.1L36.2,81.5L49.7,81.8L63.2,81.8L76.6,81.6L90.1,81.2L103.5,80.6L117.0,79.9L130.4,79.0L143.9,78.2L157.4,77.3L170.8,76.5L184.3,75.7L197.7,74.9L211.2,74.0L224.7,73.0L238.1,71.7L251.6,70.0L265.0,67.8L278.5,64.9L292.0,61.4L305.4,57.1L318.9,52.2L332.3,46.7L345.8,40.8L359.2,34.7L372.7,28.7L386.2,24.0L399.6,24.0L413.1,24.0L426.5,24.0L440.0,24.0L453.5,24.0L466.9,24.0L480.4,24.0L493.8,24.0L507.3,26.6L520.8,32.5L534.2,38.6L547.7,44.7L561.1,50.6L574.6,55.9L588.0,60.6L601.5,64.6L615.0,67.8L628.4,70.2L641.9,72.1L655.3,73.4L668.8,74.3L682.3,74.9L695.7,75.4L709.2,75.9L722.6,76.4L736.1,76.9L749.6,77.6L763.0,78.3L776.5,79.1L789.9,79.9L803.4,80.6L816.8,81.2L830.3,81.6L843.8,81.8L857.2,81.8L870.7,81.6L884.1,81.1L897.6,80.5L897.6,210L-17.6,210Z" stroke="#59636e" stroke-opacity="0.51"/><path d="M-17.6,86.8L-4.1,87.5L9.3,88.2L22.8,88.8L36.2,89.2L49.7,89.5L63.2,89.5L76.6,89.3L90.1,88.9L103.5,88.3L117.0,87.5L130.4,86.7L143.9,85.8L157.4,85.0L170.8,84.1L184.3,83.3L197.7,82.5L211.2,81.6L224.7,80.5L238.1,79.2L251.6,77.4L265.0,75.1L278.5,72.2L292.0,68.5L305.4,64.1L318.9,58.9L332.3,53.1L345.8,46.8L359.2,40.4L372.7,34.0L386.2,28.0L399.6,24.0L413.1,24.0L426.5,24.0L440.0,24.0L453.5,24.0L466.9,24.0L480.4,24.0L493.8,24.0L507.3,29.1L520.8,35.1L534.2,41.6L547.7,48.1L561.1,54.3L574.6,60.1L588.0,65.2L601.5,69.6L615.0,73.2L628.4,76.1L641.9,78.3L655.3,79.9L668.8,81.1L682.3,81.9L695.7,82.6L709.2,83.2L722.6,83.8L736.1,84.4L749.6,85.1L763.0,85.9L776.5,86.7L789.9,87.5L803.4,88.3L816.8,88.9L830.3,89.3L843.8,89.5L857.2,89.5L870.7,89.2L884.1,88.8L897.6,88.2L897.6,210L-17.6,210Z" stroke="#59636e" stroke-opacity="0.54"/><path d="M-17.6,94.4L-4.1,95.1L9.3,95.8L22.8,96.4L36.2,96.9L49.7,97.1L63.2,97.2L76.6,97.0L90.1,96.5L103.5,95.9L117.0,95.2L130.4,94.4L143.9,93.5L157.4,92.6L170.8,91.8L184.3,91.0L197.7,90.1L211.2,89.2L224.7,88.1L238.1,86.7L251.6,84.9L265.0,82.5L278.5,79.5L292.0,75.6L305.4,71.0L318.9,65.6L332.3,59.5L345.8,53.0L359.2,46.1L372.7,39.3L386.2,32.9L399.6,27.2L413.1,24.0L426.5,24.0L440.0,24.0L453.5,24.0L466.9,24.0L480.4,24.0L493.8,26.0L507.3,31.5L520.8,37.7L534.2,44.4L547.7,51.3L561.1,57.9L574.6,64.2L588.0,69.8L601.5,74.6L615.0,78.7L628.4,81.9L641.9,84.5L655.3,86.4L668.8,87.8L682.3,88.9L695.7,89.8L709.2,90.5L722.6,91.2L736.1,91.9L749.6,92.7L763.0,93.5L776.5,94.3L789.9,95.2L803.4,95.9L816.8,96.5L830.3,96.9L843.8,97.2L857.2,97.1L870.7,96.9L884.1,96.5L897.6,95.9L897.6,210L-17.6,210Z" stroke="#59636e" stroke-opacity="0.57"/><path d="M-17.6,102.1L-4.1,102.8L9.3,103.5L22.8,104.1L36.2,104.5L49.7,104.8L63.2,104.8L76.6,104.6L90.1,104.2L103.5,103.6L117.0,102.9L130.4,102.0L143.9,101.1L157.4,100.3L170.8,99.4L184.3,98.6L197.7,97.8L211.2,96.8L224.7,95.7L238.1,94.3L251.6,92.5L265.0,90.0L278.5,86.9L292.0,82.9L305.4,78.2L318.9,72.6L332.3,66.3L345.8,59.4L359.2,52.3L372.7,45.1L386.2,38.3L399.6,32.2L413.1,27.1L426.5,24.0L440.0,24.0L453.5,24.0L466.9,24.0L480.4,24.7L493.8,28.9L507.3,34.4L520.8,40.8L534.2,47.8L547.7,54.9L561.1,61.9L574.6,68.5L588.0,74.6L601.5,79.8L615.0,84.3L628.4,87.9L641.9,90.8L655.3,93.0L668.8,94.7L682.3,96.0L695.7,97.0L709.2,97.8L722.6,98.6L736.1,99.4L749.6,100.2L763.0,101.1L776.5,102.0L789.9,102.8L803.4,103.6L816.8,104.2L830.3,104.6L843.8,104.8L857.2,104.8L870.7,104.6L884.1,104.1L897.6,103.5L897.6,210L-17.6,210Z" stroke="#59636e" stroke-opacity="0.61"/><path d="M-17.6,109.8L-4.1,110.5L9.3,111.2L22.8,111.8L36.2,112.2L49.7,112.5L63.2,112.5L76.6,112.3L90.1,111.9L103.5,111.3L117.0,110.5L130.4,109.7L143.9,108.8L157.4,107.9L170.8,107.1L184.3,106.3L197.7,105.4L211.2,104.5L224.7,103.4L238.1,102.0L251.6,100.1L265.0,97.7L278.5,94.5L292.0,90.6L305.4,85.7L318.9,80.0L332.3,73.6L345.8,66.6L359.2,59.3L372.7,51.9L386.2,44.8L399.6,38.3L413.1,32.9L426.5,28.8L440.0,26.3L453.5,25.5L466.9,26.4L480.4,29.1L493.8,33.3L507.3,38.7L520.8,45.2L534.2,52.2L547.7,59.6L561.1,66.8L574.6,73.7L588.0,80.0L601.5,85.6L615.0,90.4L628.4,94.3L641.9,97.4L655.3,99.8L668.8,101.7L682.3,103.1L695.7,104.3L709.2,105.2L722.6,106.1L736.1,106.9L749.6,107.8L763.0,108.7L776.5,109.6L789.9,110.4L803.4,111.2L816.8,111.8L830.3,112.3L843.8,112.5L857.2,112.5L870.7,112.2L884.1,111.8L897.6,111.2L897.6,210L-17.6,210Z" stroke="#59636e" stroke-opacity="0.64"/><path d="M-17.6,117.4L-4.1,118.1L9.3,118.8L22.8,119.4L36.2,119.9L49.7,120.1L63.2,120.2L76.6,120.0L90.1,119.5L103.5,118.9L117.0,118.2L130.4,117.4L143.9,116.5L157.4,115.6L170.8,114.8L184.3,114.0L197.7,113.2L211.2,112.3L224.7,111.2L238.1,109.8L251.6,108.0L265.0,105.6L278.5,102.5L292.0,98.6L305.4,93.8L318.9,88.2L332.3,81.8L345.8,74.8L359.2,67.4L372.7,60.0L386.2,52.8L399.6,46.2L413.1,40.6L426.5,36.3L440.0,33.6L453.5,32.5L466.9,33.3L480.4,35.7L493.8,39.7L507.3,45.1L520.8,51.4L534.2,58.5L547.7,65.8L561.1,73.1L574.6,80.1L588.0,86.5L601.5,92.3L615.0,97.1L628.4,101.2L641.9,104.5L655.3,107.0L668.8,109.0L682.3,110.5L695.7,111.7L709.2,112.7L722.6,113.6L736.1,114.5L749.6,115.4L763.0,116.3L776.5,117.2L789.9,118.1L803.4,118.9L816.8,119.5L830.3,119.9L843.8,120.2L857.2,120.1L870.7,119.9L884.1,119.5L897.6,118.9L897.6,210L-17.6,210Z" stroke="#59636e" stroke-opacity="0.67"/><path d="M-17.6,125.1L-4.1,125.8L9.3,126.5L22.8,127.1L36.2,127.5L49.7,127.8L63.2,127.8L76.6,127.6L90.1,127.2L103.5,126.6L117.0,125.9L130.4,125.0L143.9,124.2L157.4,123.3L170.8,122.5L184.3,121.8L197.7,121.0L211.2,120.1L224.7,119.1L238.1,117.9L251.6,116.2L265.0,113.9L278.5,111.0L292.0,107.2L305.4,102.7L318.9,97.2L332.3,91.1L345.8,84.3L359.2,77.1L372.7,69.8L386.2,62.7L399.6,56.2L413.1,50.6L426.5,46.3L440.0,43.5L453.5,42.3L466.9,42.8L480.4,45.1L493.8,48.8L507.3,54.0L520.8,60.1L534.2,66.9L547.7,74.0L561.1,81.2L574.6,88.0L588.0,94.4L601.5,100.0L615.0,104.8L628.4,108.8L641.9,112.1L655.3,114.6L668.8,116.6L682.3,118.1L695.7,119.3L709.2,120.3L722.6,121.3L736.1,122.2L749.6,123.1L763.0,124.0L776.5,124.9L789.9,125.7L803.4,126.5L816.8,127.2L830.3,127.6L843.8,127.8L857.2,127.8L870.7,127.6L884.1,127.1L897.6,126.5L897.6,210L-17.6,210Z" stroke="#59636e" stroke-opacity="0.70"/><path d="M-17.6,132.8L-4.1,133.5L9.3,134.2L22.8,134.8L36.2,135.2L49.7,135.5L63.2,135.5L76.6,135.3L90.1,134.9L103.5,134.3L117.0,133.6L130.4,132.7L143.9,131.9L157.4,131.1L170.8,130.3L184.3,129.6L197.7,128.8L211.2,128.1L224.7,127.2L238.1,126.1L251.6,124.5L265.0,122.5L278.5,119.8L292.0,116.4L305.4,112.2L318.9,107.2L332.3,101.4L345.8,95.0L359.2,88.3L372.7,81.4L386.2,74.7L399.6,68.5L413.1,63.1L426.5,58.9L440.0,56.1L453.5,54.9L466.9,55.3L480.4,57.3L493.8,60.8L507.3,65.5L520.8,71.2L534.2,77.6L547.7,84.4L561.1,91.1L574.6,97.6L588.0,103.6L601.5,108.9L615.0,113.5L628.4,117.3L641.9,120.3L655.3,122.7L668.8,124.6L682.3,126.0L695.7,127.2L709.2,128.1L722.6,129.0L736.1,129.9L749.6,130.8L763.0,131.7L776.5,132.6L789.9,133.4L803.4,134.2L816.8,134.8L830.3,135.3L843.8,135.5L857.2,135.5L870.7,135.2L884.1,134.8L897.6,134.2L897.6,210L-17.6,210Z" stroke="#59636e" stroke-opacity="0.73"/><path d="M-17.6,140.4L-4.1,141.1L9.3,141.8L22.8,142.4L36.2,142.9L49.7,143.1L63.2,143.2L76.6,143.0L90.1,142.6L103.5,142.0L117.0,141.2L130.4,140.4L143.9,139.6L157.4,138.8L170.8,138.1L184.3,137.4L197.7,136.8L211.2,136.1L224.7,135.4L238.1,134.4L251.6,133.2L265.0,131.4L278.5,129.1L292.0,126.1L305.4,122.4L318.9,117.9L332.3,112.7L345.8,107.0L359.2,100.8L372.7,94.5L386.2,88.4L399.6,82.7L413.1,77.8L426.5,73.9L440.0,71.2L453.5,70.0L466.9,70.3L480.4,72.1L493.8,75.2L507.3,79.5L520.8,84.7L534.2,90.5L547.7,96.6L561.1,102.7L574.6,108.6L588.0,114.0L601.5,118.9L615.0,123.0L628.4,126.4L641.9,129.1L655.3,131.3L668.8,132.9L682.3,134.2L695.7,135.2L709.2,136.0L722.6,136.8L736.1,137.7L749.6,138.5L763.0,139.4L776.5,140.3L789.9,141.1L803.4,141.9L816.8,142.5L830.3,142.9L843.8,143.2L857.2,143.1L870.7,142.9L884.1,142.5L897.6,141.9L897.6,210L-17.6,210Z" stroke="#59636e" stroke-opacity="0.76"/><path d="M-17.6,148.1L-4.1,148.8L9.3,149.5L22.8,150.1L36.2,150.6L49.7,150.8L63.2,150.8L76.6,150.7L90.1,150.2L103.5,149.7L117.0,148.9L130.4,148.1L143.9,147.3L157.4,146.6L170.8,145.9L184.3,145.3L197.7,144.7L211.2,144.2L224.7,143.6L238.1,142.9L251.6,141.9L265.0,140.6L278.5,138.7L292.0,136.2L305.4,133.0L318.9,129.2L332.3,124.7L345.8,119.7L359.2,114.4L372.7,108.9L386.2,103.5L399.6,98.4L413.1,94.0L426.5,90.6L440.0,88.2L453.5,87.1L466.9,87.3L480.4,88.8L493.8,91.5L507.3,95.2L520.8,99.8L534.2,104.9L547.7,110.2L561.1,115.6L574.6,120.7L588.0,125.5L601.5,129.6L615.0,133.2L628.4,136.1L641.9,138.4L655.3,140.1L668.8,141.5L682.3,142.5L695.7,143.3L709.2,144.0L722.6,144.8L736.1,145.5L749.6,146.3L763.0,147.1L776.5,148.0L789.9,148.8L803.4,149.6L816.8,150.2L830.3,150.6L843.8,150.8L857.2,150.8L870.7,150.6L884.1,150.1L897.6,149.5L897.6,210L-17.6,210Z" stroke="#59636e" stroke-opacity="0.79"/><path d="M-17.6,155.8L-4.1,156.5L9.3,157.2L22.8,157.8L36.2,158.2L49.7,158.5L63.2,158.5L76.6,158.3L90.1,157.9L103.5,157.3L117.0,156.6L130.4,155.9L143.9,155.1L157.4,154.3L170.8,153.7L184.3,153.2L197.7,152.7L211.2,152.3L224.7,151.9L238.1,151.5L251.6,150.8L265.0,149.8L278.5,148.3L292.0,146.4L305.4,143.9L318.9,140.8L332.3,137.1L345.8,132.9L359.2,128.4L372.7,123.7L386.2,119.1L399.6,114.8L413.1,111.1L426.5,108.1L440.0,106.1L453.5,105.1L466.9,105.2L480.4,106.5L493.8,108.8L507.3,112.0L520.8,115.8L534.2,120.2L547.7,124.7L561.1,129.2L574.6,133.5L588.0,137.4L601.5,140.8L615.0,143.7L628.4,146.0L641.9,147.8L655.3,149.2L668.8,150.2L682.3,150.9L695.7,151.6L709.2,152.1L722.6,152.7L736.1,153.4L749.6,154.1L763.0,154.9L776.5,155.7L789.9,156.5L803.4,157.2L816.8,157.9L830.3,158.3L843.8,158.5L857.2,158.5L870.7,158.2L884.1,157.8L897.6,157.2L897.6,210L-17.6,210Z" stroke="#59636e" stroke-opacity="0.82"/><path d="M-17.6,163.4L-4.1,164.1L9.3,164.8L22.8,165.4L36.2,165.9L49.7,166.1L63.2,166.2L76.6,166.0L90.1,165.6L103.5,165.0L117.0,164.3L130.4,163.6L143.9,162.8L157.4,162.1L170.8,161.5L184.3,161.0L197.7,160.7L211.2,160.4L224.7,160.2L238.1,160.0L251.6,159.6L265.0,159.0L278.5,158.0L292.0,156.6L305.4,154.7L318.9,152.2L332.3,149.3L345.8,146.0L359.2,142.4L372.7,138.5L386.2,134.8L399.6,131.2L413.1,128.1L426.5,125.6L440.0,123.9L453.5,123.1L466.9,123.2L480.4,124.3L493.8,126.2L507.3,128.8L520.8,132.0L534.2,135.5L547.7,139.2L561.1,142.9L574.6,146.4L588.0,149.5L601.5,152.1L615.0,154.3L628.4,156.1L641.9,157.4L655.3,158.3L668.8,158.9L682.3,159.4L695.7,159.8L709.2,160.2L722.6,160.7L736.1,161.2L749.6,161.9L763.0,162.6L776.5,163.4L789.9,164.2L803.4,164.9L816.8,165.5L830.3,166.0L843.8,166.2L857.2,166.2L870.7,165.9L884.1,165.5L897.6,164.9L897.6,210L-17.6,210Z" stroke="#59636e" stroke-opacity="0.85"/></g><text x="854" y="181" font-size="12" fill="#8c959f" text-anchor="end">2026-10-11</text></svg>
