<svg xmlns="http://www.w3.org/2000/svg" width="480" height="140" viewBox="0 0 480 140" role="img" aria-labelledby="art-title art-desc"><title id="art-title">Generated header for 2026-09-24</title><desc id="art-desc">19 contour lines shaped by 4 peaks, drawn from the date 2026-09-24.</desc><style>text{font-family:ui-monospace,"SFMono-Regular",Consolas,monospace;font-variant-numeric:tabular-nums}</style><clipPath id="art-clip"><rect width="480" height="140" rx="12"/></clipPath><rect width="480" height="140" rx="12" fill="#0d1117"/><g clip-path="url(#art-clip)" fill="#0d1117" stroke-width="1.3"><path d="M-9.6,25.1L1.7,25.0L13.1,24.8L24.4,24.7L35.8,24.6L47.1,24.3L58.5,24.0L69.8,24.0L81.2,24.0L92.5,24.0L103.9,24.0L115.2,24.0L126.5,24.0L137.9,24.0L149.2,24.0L160.6,24.0L171.9,24.0L183.3,24.0L194.6,24.0L206.0,24.0L217.3,24.0L228.7,24.0L240.0,24.0L251.3,24.0L262.7,24.0L274.0,24.0L285.4,24.0L296.7,24.0L308.1,24.0L319.4,24.5L330.8,24.8L342.1,24.9L353.5,24.8L364.8,24.8L376.1,24.8L387.5,24.9L398.8,25.0L410.2,25.1L421.5,25.3L432.9,25.5L444.2,25.7L455.6,26.0L466.9,26.2L478.3,26.5L489.6,26.7L489.6,164L-9.6,164Z" stroke="#b1bac4" stroke-opacity="0.30"/><path d="M-9.6,30.3L1.7,30.1L13.1,30.0L24.4,29.8L35.8,29.7L47.1,29.4L58.5,28.8L69.8,27.7L81.2,25.8L92.5,24.0L103.9,24.0L115.2,24.0L126.5,24.0L137.9,24.0L149.2,24.0L160.6,24.0L171.9,24.0L183.3,24.0L194.6,24.0L206.0,24.0L217.3,24.0L228.7,24.0L240.0,24.0L251.3,24.0L262.7,24.0L274.0,24.0L285.4,24.0L296.7,26.9L308.1,28.8L319.4,29.6L330.8,29.9L342.1,30.0L353.5,30.0L364.8,29.9L376.1,29.9L387.5,30.0L398.8,30.1L410.2,30.2L421.5,30.4L432.9,30.6L444.2,30.8L455.6,31.1L466.9,31.3L478.3,31.6L489.6,31.8L489.6,164L-9.6,164Z" stroke="#b1bac4" stroke-opacity="0.33"/><path d="M-9.6,35.4L1.7,35.2L13.1,35.1L24.4,34.9L35.8,34.8L47.1,34.5L58.5,33.9L69.8,32.7L81.2,30.6L92.5,27.2L103.9,24.0L115.2,24.0L126.5,24.0L137.9,24.0L149.2,24.0L160.6,24.0L171.9,24.0L183.3,24.0L194.6,24.0L206.0,24.0L217.3,24.0L228.7,24.0L240.0,24.0L251.3,24.0L262.7,24.0L274.0,24.0L285.4,28.3L296.7,31.9L308.1,33.9L319.4,34.7L330.8,35.0L342.1,35.1L353.5,35.1L364.8,35.0L376.1,35.0L387.5,35.1L398.8,35.2L410.2,35.3L421.5,35.5L432.9,35.7L444.2,36.0L455.6,36.2L466.9,36.4L478.3,36.7L489.6,36.9L489.6,164L-9.6,164Z" stroke="#b1bac4" stroke-opacity="0.36"/><path d="M-9.6,40.5L1.7,40.3L13.1,40.2L24.4,40.0L35.8,39.9L47.1,39.5L58.5,38.9L69.8,37.7L81.2,35.5L92.5,31.9L103.9,26.2L115.2,24.0L126.5,24.0L137.9,24.0L149.2,24.0L160.6,24.0L171.9,24.0L183.3,24.0L194.6,24.0L206.0,24.0L217.3,24.0L228.7,24.0L240.0,24.0L251.3,24.0L262.7,24.0L274.0,27.6L285.4,33.6L296.7,37.1L308.1,39.0L319.4,39.9L330.8,40.2L342.1,40.2L353.5,40.2L364.8,40.1L376.1,40.2L387.5,40.2L398.8,40.3L410.2,40.4L421.5,40.6L432.9,40.8L444.2,41.1L455.6,41.3L466.9,41.6L478.3,41.8L489.6,42.0L489.6,164L-9.6,164Z" stroke="#3fb950" stroke-opacity="0.75"/><path d="M-9.6,45.6L1.7,45.4L13.1,45.3L24.4,45.1L35.8,45.0L47.1,44.6L58.5,44.0L69.8,42.7L81.2,40.5L92.5,36.7L103.9,30.7L115.2,24.0L126.5,24.0L137.9,24.0L149.2,24.0L160.6,24.0L171.9,24.0L183.3,24.0L194.6,24.0L206.0,24.0L217.3,24.0L228.7,24.0L240.0,24.0L251.3,24.0L262.7,24.6L274.0,33.3L285.4,39.0L296.7,42.4L308.1,44.2L319.4,45.0L330.8,45.3L342.1,45.3L353.5,45.3L364.8,45.3L376.1,45.3L387.5,45.3L398.8,45.4L410.2,45.5L421.5,45.7L432.9,45.9L444.2,46.2L455.6,46.4L466.9,46.7L478.3,46.9L489.6,47.1L489.6,164L-9.6,164Z" stroke="#b1bac4" stroke-opacity="0.42"/><path d="M-9.6,50.7L1.7,50.5L13.1,50.4L24.4,50.2L35.8,50.1L47.1,49.7L58.5,49.0L69.8,47.7L81.2,45.4L92.5,41.5L103.9,35.4L115.2,26.6L126.5,24.0L137.9,24.0L149.2,24.0L160.6,24.0L171.9,24.0L183.3,24.0L194.6,24.0L206.0,24.0L217.3,24.0L228.7,24.0L240.0,24.0L251.3,24.0L262.7,30.9L274.0,39.2L285.4,44.6L296.7,47.7L308.1,49.4L319.4,50.1L330.8,50.4L342.1,50.4L353.5,50.4L364.8,50.4L376.1,50.4L387.5,50.4L398.8,50.5L410.2,50.7L421.5,50.8L432.9,51.1L444.2,51.3L455.6,51.5L466.9,51.8L478.3,52.0L489.6,52.2L489.6,164L-9.6,164Z" stroke="#b1bac4" stroke-opacity="0.45"/><path d="M-9.6,55.8L1.7,55.6L13.1,55.5L24.4,55.3L35.8,55.1L47.1,54.8L58.5,54.1L69.8,52.7L81.2,50.3L92.5,46.3L103.9,40.0L115.2,31.0L126.5,24.0L137.9,24.0L149.2,24.0L160.6,24.0L171.9,24.0L183.3,24.0L194.6,24.0L206.0,24.0L217.3,24.0L228.7,24.0L240.0,24.0L251.3,26.6L262.7,37.4L274.0,45.1L285.4,50.1L296.7,53.1L308.1,54.6L319.4,55.3L330.8,55.5L342.1,55.5L353.5,55.5L364.8,55.5L376.1,55.5L387.5,55.5L398.8,55.6L410.2,55.8L421.5,56.0L432.9,56.2L444.2,56.4L455.6,56.6L466.9,56.9L478.3,57.1L489.6,57.3L489.6,164L-9.6,164Z" stroke="#b1bac4" stroke-opacity="0.48"/><path d="M-9.6,60.9L1.7,60.8L13.1,60.6L24.4,60.4L35.8,60.2L47.1,59.9L58.5,59.1L69.8,57.7L81.2,55.2L92.5,51.1L103.9,44.7L115.2,35.6L126.5,24.0L137.9,24.0L149.2,24.0L160.6,24.0L171.9,24.0L183.3,24.0L194.6,24.0L206.0,24.0L217.3,24.0L228.7,24.0L240.0,24.0L251.3,33.6L262.7,43.7L274.0,51.0L285.4,55.6L296.7,58.4L308.1,59.8L319.4,60.4L330.8,60.6L342.1,60.6L353.5,60.6L364.8,60.6L376.1,60.6L387.5,60.6L398.8,60.7L410.2,60.9L421.5,61.1L432.9,61.3L444.2,61.5L455.6,61.8L466.9,62.0L478.3,62.2L489.6,62.5L489.6,164L-9.6,164Z" stroke="#b1bac4" stroke-opacity="0.51"/><path d="M-9.6,66.0L1.7,65.9L13.1,65.7L24.4,65.5L35.8,65.3L47.1,64.9L58.5,64.1L69.8,62.7L81.2,60.2L92.5,55.9L103.9,49.4L115.2,40.2L126.5,28.2L137.9,24.0L149.2,24.0L160.6,24.0L171.9,24.0L183.3,24.0L194.6,24.0L206.0,24.0L217.3,24.0L228.7,24.0L240.0,27.9L251.3,40.3L262.7,49.9L274.0,56.7L285.4,61.1L296.7,63.6L308.1,64.9L319.4,65.5L330.8,65.7L342.1,65.7L353.5,65.7L364.8,65.7L376.1,65.7L387.5,65.8L398.8,65.9L410.2,66.0L421.5,66.2L432.9,66.4L444.2,66.6L455.6,66.9L466.9,67.1L478.3,67.4L489.6,67.6L489.6,164L-9.6,164Z" stroke="#b1bac4" stroke-opacity="0.54"/><path d="M-9.6,71.1L1.7,71.0L13.1,70.8L24.4,70.6L35.8,70.4L47.1,70.0L58.5,69.2L69.8,67.7L81.2,65.1L92.5,60.8L103.9,54.3L115.2,45.2L126.5,33.3L137.9,24.0L149.2,24.0L160.6,24.0L171.9,24.0L183.3,24.0L194.6,24.0L206.0,24.0L217.3,24.0L228.7,24.0L240.0,35.1L251.3,46.9L262.7,56.0L274.0,62.3L285.4,66.4L296.7,68.8L308.1,70.0L319.4,70.6L330.8,70.8L342.1,70.9L353.5,70.8L364.8,70.8L376.1,70.8L387.5,70.9L398.8,71.0L410.2,71.1L421.5,71.3L432.9,71.5L444.2,71.7L455.6,72.0L466.9,72.2L478.3,72.5L489.6,72.7L489.6,164L-9.6,164Z" stroke="#b1bac4" stroke-opacity="0.57"/><path d="M-9.6,76.3L1.7,76.1L13.1,75.9L24.4,75.7L35.8,75.5L47.1,75.1L58.5,74.2L69.8,72.8L81.2,70.2L92.5,65.9L103.9,59.6L115.2,50.6L126.5,39.1L137.9,25.7L149.2,24.0L160.6,24.0L171.9,24.0L183.3,24.0L194.6,24.0L206.0,24.0L217.3,24.0L228.7,29.3L240.0,42.4L251.3,53.5L262.7,62.0L274.0,67.9L285.4,71.7L296.7,74.0L308.1,75.2L319.4,75.7L330.8,75.9L342.1,76.0L353.5,75.9L364.8,75.9L376.1,75.9L387.5,76.0L398.8,76.1L410.2,76.2L421.5,76.4L432.9,76.6L444.2,76.8L455.6,77.1L466.9,77.3L478.3,77.6L489.6,77.8L489.6,164L-9.6,164Z" stroke="#b1bac4" stroke-opacity="0.61"/><path d="M-9.6,81.4L1.7,81.2L13.1,81.0L24.4,80.9L35.8,80.6L47.1,80.2L58.5,79.4L69.8,77.9L81.2,75.4L92.5,71.3L103.9,65.2L115.2,56.7L126.5,45.8L137.9,33.3L149.2,24.0L160.6,24.0L171.9,24.0L183.3,24.0L194.6,24.0L206.0,24.0L217.3,24.8L228.7,37.8L240.0,50.0L251.3,60.3L262.7,68.1L274.0,73.6L285.4,77.1L296.7,79.2L308.1,80.3L319.4,80.8L330.8,81.0L342.1,81.1L353.5,81.0L364.8,81.0L376.1,81.0L387.5,81.1L398.8,81.2L410.2,81.3L421.5,81.5L432.9,81.7L444.2,82.0L455.6,82.2L466.9,82.4L478.3,82.7L489.6,82.9L489.6,164L-9.6,164Z" stroke="#b1bac4" stroke-opacity="0.64"/><path d="M-9.6,86.5L1.7,86.3L13.1,86.1L24.4,86.0L35.8,85.7L47.1,85.3L58.5,84.6L69.8,83.2L81.2,80.9L92.5,77.1L103.9,71.5L115.2,63.7L126.5,53.7L137.9,42.3L149.2,30.7L160.6,24.0L171.9,24.0L183.3,24.0L194.6,24.0L206.0,24.6L217.3,35.4L228.7,47.2L240.0,58.2L251.3,67.5L262.7,74.5L274.0,79.5L285.4,82.6L296.7,84.5L308.1,85.5L319.4,86.0L330.8,86.2L342.1,86.2L353.5,86.2L364.8,86.1L376.1,86.1L387.5,86.2L398.8,86.3L410.2,86.4L421.5,86.6L432.9,86.8L444.2,87.1L455.6,87.3L466.9,87.6L478.3,87.8L489.6,88.0L489.6,164L-9.6,164Z" stroke="#b1bac4" stroke-opacity="0.67"/><path d="M-9.6,91.6L1.7,91.4L13.1,91.3L24.4,91.1L35.8,90.9L47.1,90.5L58.5,89.8L69.8,88.6L81.2,86.6L92.5,83.2L103.9,78.3L115.2,71.4L126.5,62.7L137.9,52.7L149.2,42.6L160.6,34.0L171.9,28.5L183.3,27.3L194.6,30.6L206.0,37.7L217.3,47.2L228.7,57.5L240.0,67.1L251.3,75.1L262.7,81.2L274.0,85.5L285.4,88.3L296.7,89.9L308.1,90.8L319.4,91.2L330.8,91.3L342.1,91.3L353.5,91.3L364.8,91.2L376.1,91.3L387.5,91.3L398.8,91.4L410.2,91.5L421.5,91.7L432.9,91.9L444.2,92.2L455.6,92.4L466.9,92.7L478.3,92.9L489.6,93.1L489.6,164L-9.6,164Z" stroke="#b1bac4" stroke-opacity="0.70"/><path d="M-9.6,96.7L1.7,96.5L13.1,96.4L24.4,96.2L35.8,96.0L47.1,95.7L58.5,95.2L69.8,94.2L81.2,92.4L92.5,89.6L103.9,85.5L115.2,79.7L126.5,72.4L137.9,64.1L149.2,55.7L160.6,48.5L171.9,44.0L183.3,43.0L194.6,45.8L206.0,51.8L217.3,59.8L228.7,68.4L240.0,76.4L251.3,83.1L262.7,88.2L274.0,91.8L285.4,94.0L296.7,95.4L308.1,96.0L319.4,96.4L330.8,96.4L342.1,96.4L353.5,96.4L364.8,96.4L376.1,96.4L387.5,96.4L398.8,96.5L410.2,96.7L421.5,96.8L432.9,97.1L444.2,97.3L455.6,97.5L466.9,97.8L478.3,98.0L489.6,98.2L489.6,164L-9.6,164Z" stroke="#b1bac4" stroke-opacity="0.73"/><path d="M-9.6,101.8L1.7,101.6L13.1,101.5L24.4,101.4L35.8,101.2L47.1,101.0L58.5,100.5L69.8,99.7L81.2,98.4L92.5,96.2L103.9,92.9L115.2,88.3L126.5,82.5L137.9,75.9L149.2,69.2L160.6,63.5L171.9,59.9L183.3,59.2L194.6,61.5L206.0,66.4L217.3,72.8L228.7,79.6L240.0,86.0L251.3,91.3L262.7,95.3L274.0,98.1L285.4,99.8L296.7,100.9L308.1,101.4L319.4,101.6L330.8,101.6L342.1,101.6L353.5,101.5L364.8,101.5L376.1,101.5L387.5,101.5L398.8,101.6L410.2,101.8L421.5,102.0L432.9,102.2L444.2,102.4L455.6,102.6L466.9,102.9L478.3,103.1L489.6,103.3L489.6,164L-9.6,164Z" stroke="#b1bac4" stroke-opacity="0.76"/><path d="M-9.6,106.9L1.7,106.8L13.1,106.6L24.4,106.5L35.8,106.4L47.1,106.2L58.5,105.9L69.8,105.3L81.2,104.3L92.5,102.7L103.9,100.3L115.2,96.8L126.5,92.5L137.9,87.5L149.2,82.4L160.6,78.2L171.9,75.5L183.3,75.0L194.6,76.8L206.0,80.5L217.3,85.3L228.7,90.6L240.0,95.4L251.3,99.3L262.7,102.3L274.0,104.4L285.4,105.6L296.7,106.4L308.1,106.7L319.4,106.8L330.8,106.8L342.1,106.7L353.5,106.6L364.8,106.6L376.1,106.6L387.5,106.6L398.8,106.7L410.2,106.9L421.5,107.1L432.9,107.3L444.2,107.5L455.6,107.8L466.9,108.0L478.3,108.2L489.6,108.5L489.6,164L-9.6,164Z" stroke="#b1bac4" stroke-opacity="0.79"/><path d="M-9.6,112.0L1.7,111.9L13.1,111.8L24.4,111.7L35.8,111.6L47.1,111.4L58.5,111.3L69.8,110.9L81.2,110.2L92.5,109.1L103.9,107.4L115.2,105.0L126.5,101.9L137.9,98.3L149.2,94.7L160.6,91.7L171.9,89.8L183.3,89.5L194.6,90.8L206.0,93.5L217.3,97.0L228.7,100.8L240.0,104.2L251.3,107.1L262.7,109.2L274.0,110.5L285.4,111.4L296.7,111.8L308.1,112.0L319.4,112.0L330.8,111.9L342.1,111.8L353.5,111.8L364.8,111.7L376.1,111.7L387.5,111.8L398.8,111.9L410.2,112.0L421.5,112.2L432.9,112.4L444.2,112.6L455.6,112.9L466.9,113.1L478.3,113.4L489.6,113.6L489.6,164L-9.6,164Z" stroke="#b1bac4" stroke-opacity="0.82"/><path d="M-9.6,117.2L1.7,117.0L13.1,116.9L24.4,116.8L35.8,116.7L47.1,116.7L58.5,116.6L69.8,116.4L81.2,116.0L92.5,115.3L103.9,114.2L115.2,112.6L126.5,110.5L137.9,108.2L149.2,105.7L160.6,103.7L171.9,102.4L183.3,102.2L194.6,103.2L206.0,105.1L217.3,107.5L228.7,110.1L240.0,112.4L251.3,114.3L262.7,115.6L274.0,116.5L285.4,117.0L296.7,117.2L308.1,117.2L319.4,117.2L330.8,117.1L342.1,117.0L353.5,116.9L364.8,116.8L376.1,116.8L387.5,116.9L398.8,117.0L410.2,117.1L421.5,117.3L432.9,117.5L444.2,117.7L455.6,118.0L466.9,118.2L478.3,118.5L489.6,118.7L489.6,164L-9.6,164Z" stroke="#b1bac4" stroke-opacity="0.85"/></g><text x="460" y="135" font-size="12" fill="#6e7681" text-anchor="end">2026-09-24</text></svg>
