<svg xmlns="http://www.w3.org/2000/svg" width="480" height="140" viewBox="0 0 480 140" role="img" aria-labelledby="art-title art-desc"><title id="art-title">Generated header for 2026-10-06</title><desc id="art-desc">25 contour lines shaped by 4 peaks, drawn from the date 2026-10-06.</desc><style>text{font-family:ui-monospace,"SFMono-Regular",Consolas,monospace;font-variant-numeric:tabular-nums}</style><clipPath id="art-clip"><rect width="480" height="140" rx="12"/></clipPath><rect width="480" height="140" rx="12" fill="#0d1117"/><g clip-path="url(#art-clip)" fill="#0d1117" stroke-width="1.3"><path d="M-9.6,24.1L1.7,24.5L13.1,25.0L24.4,25.7L35.8,26.4L47.1,27.0L58.5,27.4L69.8,27.6L81.2,27.5L92.5,27.2L103.9,26.6L115.2,25.9L126.5,25.2L137.9,24.5L149.2,24.0L160.6,24.0L171.9,24.0L183.3,24.0L194.6,24.1L206.0,24.7L217.3,25.4L228.7,26.1L240.0,26.7L251.3,27.1L262.7,27.1L274.0,26.8L285.4,26.3L296.7,25.9L308.1,25.6L319.4,25.4L330.8,25.1L342.1,24.7L353.5,24.3L364.8,24.0L376.1,24.0L387.5,24.2L398.8,24.6L410.2,25.2L421.5,26.0L432.9,26.7L444.2,27.3L455.6,27.8L466.9,28.0L478.3,28.0L489.6,27.7L489.6,164L-9.6,164Z" stroke="#3fb950" stroke-opacity="0.75"/><path d="M-9.6,27.9L1.7,28.3L13.1,28.8L24.4,29.5L35.8,30.2L47.1,30.8L58.5,31.1L69.8,31.3L81.2,31.1L92.5,30.8L103.9,30.2L115.2,29.5L126.5,28.7L137.9,28.1L149.2,27.6L160.6,27.3L171.9,27.2L183.3,27.4L194.6,27.8L206.0,28.5L217.3,29.2L228.7,29.9L240.0,30.5L251.3,30.8L262.7,30.6L274.0,30.1L285.4,29.5L296.7,29.1L308.1,28.9L319.4,28.9L330.8,28.7L342.1,28.4L353.5,28.1L364.8,27.8L376.1,27.8L387.5,28.0L398.8,28.5L410.2,29.1L421.5,29.8L432.9,30.5L444.2,31.2L455.6,31.6L466.9,31.9L478.3,31.8L489.6,31.5L489.6,164L-9.6,164Z" stroke="#b1bac4" stroke-opacity="0.32"/><path d="M-9.6,31.7L1.7,32.1L13.1,32.7L24.4,33.3L35.8,34.0L47.1,34.5L58.5,34.8L69.8,34.9L81.2,34.7L92.5,34.3L103.9,33.7L115.2,32.9L126.5,32.2L137.9,31.5L149.2,31.1L160.6,30.8L171.9,30.8L183.3,31.1L194.6,31.6L206.0,32.2L217.3,33.0L228.7,33.7L240.0,34.2L251.3,34.4L262.7,34.0L274.0,33.3L285.4,32.5L296.7,32.0L308.1,32.1L319.4,32.3L330.8,32.3L342.1,32.2L353.5,31.9L364.8,31.7L376.1,31.6L387.5,31.8L398.8,32.3L410.2,32.9L421.5,33.6L432.9,34.4L444.2,35.0L455.6,35.5L466.9,35.7L478.3,35.7L489.6,35.4L489.6,164L-9.6,164Z" stroke="#b1bac4" stroke-opacity="0.35"/><path d="M-9.6,35.6L1.7,35.9L13.1,36.5L24.4,37.1L35.8,37.7L47.1,38.2L58.5,38.5L69.8,38.5L81.2,38.3L92.5,37.8L103.9,37.1L115.2,36.3L126.5,35.5L137.9,34.9L149.2,34.5L160.6,34.3L171.9,34.4L183.3,34.7L194.6,35.3L206.0,35.9L217.3,36.7L228.7,37.4L240.0,37.9L251.3,37.9L262.7,37.3L274.0,36.2L285.4,35.2L296.7,34.8L308.1,35.0L319.4,35.5L330.8,35.9L342.1,35.9L353.5,35.7L364.8,35.5L376.1,35.5L387.5,35.7L398.8,36.1L410.2,36.7L421.5,37.5L432.9,38.2L444.2,38.8L455.6,39.3L466.9,39.5L478.3,39.5L489.6,39.2L489.6,164L-9.6,164Z" stroke="#b1bac4" stroke-opacity="0.37"/><path d="M-9.6,39.4L1.7,39.8L13.1,40.3L24.4,40.9L35.8,41.5L47.1,41.9L58.5,42.2L69.8,42.1L81.2,41.7L92.5,41.1L103.9,40.4L115.2,39.5L126.5,38.8L137.9,38.2L149.2,37.9L160.6,37.8L171.9,37.9L183.3,38.3L194.6,38.9L206.0,39.6L217.3,40.4L228.7,41.1L240.0,41.5L251.3,41.3L262.7,40.4L274.0,38.9L285.4,37.7L296.7,37.2L308.1,37.7L319.4,38.6L330.8,39.3L342.1,39.5L353.5,39.4L364.8,39.3L376.1,39.3L387.5,39.5L398.8,39.9L410.2,40.6L421.5,41.3L432.9,42.0L444.2,42.7L455.6,43.1L466.9,43.4L478.3,43.3L489.6,43.0L489.6,164L-9.6,164Z" stroke="#b1bac4" stroke-opacity="0.39"/><path d="M-9.6,43.2L1.7,43.6L13.1,44.1L24.4,44.7L35.8,45.2L47.1,45.6L58.5,45.8L69.8,45.6L81.2,45.1L92.5,44.4L103.9,43.5L115.2,42.7L126.5,41.9L137.9,41.4L149.2,41.1L160.6,41.1L171.9,41.3L183.3,41.8L194.6,42.5L206.0,43.2L217.3,44.0L228.7,44.7L240.0,44.9L251.3,44.5L262.7,43.3L274.0,41.4L285.4,39.8L296.7,39.3L308.1,40.1L319.4,41.5L330.8,42.7L342.1,43.2L353.5,43.2L364.8,43.1L376.1,43.1L387.5,43.3L398.8,43.8L410.2,44.4L421.5,45.1L432.9,45.9L444.2,46.5L455.6,47.0L466.9,47.2L478.3,47.2L489.6,46.9L489.6,164L-9.6,164Z" stroke="#b1bac4" stroke-opacity="0.41"/><path d="M-9.6,47.1L1.7,47.4L13.1,47.9L24.4,48.4L35.8,48.9L47.1,49.3L58.5,49.3L69.8,49.0L81.2,48.4L92.5,47.5L103.9,46.6L115.2,45.6L126.5,44.9L137.9,44.4L149.2,44.2L160.6,44.3L171.9,44.7L183.3,45.2L194.6,46.0L206.0,46.7L217.3,47.5L228.7,48.1L240.0,48.3L251.3,47.6L262.7,45.9L274.0,43.5L285.4,41.5L296.7,41.1L308.1,42.3L319.4,44.3L330.8,45.9L342.1,46.7L353.5,46.9L364.8,46.9L376.1,46.9L387.5,47.2L398.8,47.6L410.2,48.2L421.5,49.0L432.9,49.7L444.2,50.3L455.6,50.8L466.9,51.0L478.3,51.0L489.6,50.7L489.6,164L-9.6,164Z" stroke="#b1bac4" stroke-opacity="0.44"/><path d="M-9.6,50.9L1.7,51.2L13.1,51.7L24.4,52.2L35.8,52.6L47.1,52.9L58.5,52.8L69.8,52.4L81.2,51.6L92.5,50.6L103.9,49.5L115.2,48.5L126.5,47.7L137.9,47.2L149.2,47.1L160.6,47.3L171.9,47.8L183.3,48.5L194.6,49.3L206.0,50.1L217.3,50.9L228.7,51.4L240.0,51.4L251.3,50.4L262.7,48.2L274.0,45.3L285.4,42.9L296.7,42.4L308.1,44.1L319.4,46.8L330.8,49.1L342.1,50.3L353.5,50.7L364.8,50.7L376.1,50.7L387.5,51.0L398.8,51.4L410.2,52.1L421.5,52.8L432.9,53.5L444.2,54.2L455.6,54.6L466.9,54.9L478.3,54.8L489.6,54.5L489.6,164L-9.6,164Z" stroke="#b1bac4" stroke-opacity="0.46"/><path d="M-9.6,54.7L1.7,55.0L13.1,55.5L24.4,55.9L35.8,56.3L47.1,56.4L58.5,56.2L69.8,55.6L81.2,54.7L92.5,53.5L103.9,52.2L115.2,51.1L126.5,50.3L137.9,49.9L149.2,49.9L160.6,50.2L171.9,50.9L183.3,51.7L194.6,52.5L206.0,53.4L217.3,54.1L228.7,54.5L240.0,54.3L251.3,52.9L262.7,50.2L274.0,46.6L285.4,43.8L296.7,43.5L308.1,45.7L319.4,49.2L330.8,52.1L342.1,53.8L353.5,54.4L364.8,54.5L376.1,54.6L387.5,54.8L398.8,55.3L410.2,55.9L421.5,56.6L432.9,57.4L444.2,58.0L455.6,58.5L466.9,58.7L478.3,58.7L489.6,58.4L489.6,164L-9.6,164Z" stroke="#b1bac4" stroke-opacity="0.48"/><path d="M-9.6,58.5L1.7,58.8L13.1,59.2L24.4,59.7L35.8,60.0L47.1,60.0L58.5,59.6L69.8,58.8L81.2,57.6L92.5,56.2L103.9,54.8L115.2,53.6L126.5,52.7L137.9,52.4L149.2,52.5L160.6,53.0L171.9,53.8L183.3,54.7L194.6,55.6L206.0,56.4L217.3,57.0L228.7,57.2L240.0,56.7L251.3,55.0L262.7,51.6L274.0,47.5L285.4,44.3L296.7,44.1L308.1,47.0L319.4,51.3L330.8,55.0L342.1,57.2L353.5,58.0L364.8,58.2L376.1,58.4L387.5,58.6L398.8,59.1L410.2,59.7L421.5,60.5L432.9,61.2L444.2,61.8L455.6,62.3L466.9,62.5L478.3,62.5L489.6,62.2L489.6,164L-9.6,164Z" stroke="#b1bac4" stroke-opacity="0.51"/><path d="M-9.6,62.3L1.7,62.6L13.1,63.0L24.4,63.4L35.8,63.6L47.1,63.5L58.5,62.9L69.8,61.9L81.2,60.5L92.5,58.9L103.9,57.2L115.2,55.9L126.5,55.0L137.9,54.6L149.2,54.9L160.6,55.5L171.9,56.4L183.3,57.4L194.6,58.3L206.0,59.1L217.3,59.5L228.7,59.5L240.0,58.7L251.3,56.5L262.7,52.6L274.0,47.8L285.4,44.4L296.7,44.4L308.1,48.0L319.4,53.3L330.8,57.9L342.1,60.6L353.5,61.7L364.8,62.0L376.1,62.2L387.5,62.4L398.8,62.9L410.2,63.6L421.5,64.3L432.9,65.0L444.2,65.7L455.6,66.1L466.9,66.4L478.3,66.3L489.6,66.0L489.6,164L-9.6,164Z" stroke="#b1bac4" stroke-opacity="0.53"/><path d="M-9.6,66.2L1.7,66.4L13.1,66.8L24.4,67.1L35.8,67.2L47.1,66.9L58.5,66.2L69.8,64.9L81.2,63.3L92.5,61.4L103.9,59.5L115.2,58.0L126.5,57.0L137.9,56.8L149.2,57.1L160.6,57.9L171.9,58.9L183.3,59.9L194.6,60.8L206.0,61.4L217.3,61.6L228.7,61.3L240.0,60.0L251.3,57.4L262.7,52.9L274.0,47.7L285.4,44.0L296.7,44.3L308.1,48.8L319.4,55.2L330.8,60.6L342.1,63.9L353.5,65.3L364.8,65.7L376.1,65.9L387.5,66.3L398.8,66.7L410.2,67.4L421.5,68.1L432.9,68.9L444.2,69.5L455.6,70.0L466.9,70.2L478.3,70.2L489.6,69.9L489.6,164L-9.6,164Z" stroke="#b1bac4" stroke-opacity="0.55"/><path d="M-9.6,70.0L1.7,70.2L13.1,70.5L24.4,70.8L35.8,70.8L47.1,70.4L58.5,69.4L69.8,67.9L81.2,65.9L92.5,63.7L103.9,61.6L115.2,60.0L126.5,58.9L137.9,58.7L149.2,59.1L160.6,60.0L171.9,61.1L183.3,62.2L194.6,63.0L206.0,63.3L217.3,63.2L228.7,62.4L240.0,60.6L251.3,57.5L262.7,52.6L274.0,46.9L285.4,43.2L296.7,44.0L308.1,49.5L319.4,56.9L330.8,63.3L342.1,67.1L353.5,68.8L364.8,69.4L376.1,69.7L387.5,70.1L398.8,70.6L410.2,71.2L421.5,71.9L432.9,72.7L444.2,73.3L455.6,73.8L466.9,74.0L478.3,74.0L489.6,73.7L489.6,164L-9.6,164Z" stroke="#b1bac4" stroke-opacity="0.57"/><path d="M-9.6,73.8L1.7,74.0L13.1,74.3L24.4,74.5L35.8,74.4L47.1,73.8L58.5,72.6L69.8,70.8L81.2,68.5L92.5,66.0L103.9,63.7L115.2,61.8L126.5,60.7L137.9,60.4L149.2,60.9L160.6,61.9L171.9,63.0L183.3,64.1L194.6,64.7L206.0,64.8L217.3,64.1L228.7,62.7L240.0,60.4L251.3,56.7L262.7,51.4L274.0,45.6L285.4,42.1L296.7,43.6L308.1,50.0L319.4,58.6L330.8,65.9L342.1,70.3L353.5,72.4L364.8,73.1L376.1,73.5L387.5,73.8L398.8,74.4L410.2,75.0L421.5,75.8L432.9,76.5L444.2,77.2L455.6,77.6L466.9,77.9L478.3,77.8L489.6,77.5L489.6,164L-9.6,164Z" stroke="#b1bac4" stroke-opacity="0.60"/><path d="M-9.6,77.6L1.7,77.8L13.1,78.0L24.4,78.2L35.8,77.9L47.1,77.2L58.5,75.8L69.8,73.7L81.2,71.1L92.5,68.3L103.9,65.6L115.2,63.6L126.5,62.4L137.9,62.1L149.2,62.6L160.6,63.6L171.9,64.8L183.3,65.7L194.6,66.1L206.0,65.7L217.3,64.4L228.7,62.3L240.0,59.3L251.3,55.1L262.7,49.5L274.0,43.8L285.4,40.7L296.7,43.0L308.1,50.6L319.4,60.3L330.8,68.5L342.1,73.5L353.5,75.8L364.8,76.8L376.1,77.2L387.5,77.6L398.8,78.2L410.2,78.9L421.5,79.6L432.9,80.3L444.2,81.0L455.6,81.5L466.9,81.7L478.3,81.7L489.6,81.4L489.6,164L-9.6,164Z" stroke="#b1bac4" stroke-opacity="0.62"/><path d="M-9.6,81.4L1.7,81.6L13.1,81.8L24.4,81.8L35.8,81.5L47.1,80.6L58.5,78.9L69.8,76.6L81.2,73.7L92.5,70.5L103.9,67.6L115.2,65.3L126.5,63.9L137.9,63.6L149.2,64.1L160.6,65.1L171.9,66.2L183.3,67.0L194.6,67.0L206.0,66.1L217.3,64.0L228.7,61.0L240.0,57.2L251.3,52.5L262.7,46.9L274.0,41.5L285.4,39.1L296.7,42.4L308.1,51.2L319.4,62.0L330.8,71.1L342.1,76.6L353.5,79.3L364.8,80.4L376.1,80.9L387.5,81.4L398.8,82.0L410.2,82.7L421.5,83.4L432.9,84.2L444.2,84.8L455.6,85.3L466.9,85.5L478.3,85.5L489.6,85.2L489.6,164L-9.6,164Z" stroke="#b1bac4" stroke-opacity="0.64"/><path d="M-9.6,85.2L1.7,85.4L13.1,85.5L24.4,85.5L35.8,85.1L47.1,84.0L58.5,82.1L69.8,79.5L81.2,76.2L92.5,72.7L103.9,69.5L115.2,67.0L126.5,65.5L137.9,65.1L149.2,65.6L160.6,66.6L171.9,67.5L183.3,68.0L194.6,67.6L206.0,66.0L217.3,63.0L228.7,59.1L240.0,54.4L251.3,49.3L262.7,43.8L274.0,39.0L285.4,37.5L296.7,42.0L308.1,52.0L319.4,63.9L330.8,73.7L342.1,79.8L353.5,82.7L364.8,84.0L376.1,84.6L387.5,85.1L398.8,85.8L410.2,86.5L421.5,87.3L432.9,88.0L444.2,88.7L455.6,89.1L466.9,89.4L478.3,89.3L489.6,89.0L489.6,164L-9.6,164Z" stroke="#b1bac4" stroke-opacity="0.67"/><path d="M-9.6,89.0L1.7,89.2L13.1,89.3L24.4,89.2L35.8,88.7L47.1,87.4L58.5,85.3L69.8,82.4L81.2,78.8L92.5,75.1L103.9,71.5L115.2,68.8L126.5,67.2L137.9,66.6L149.2,67.1L160.6,67.9L171.9,68.7L183.3,68.9L194.6,67.9L206.0,65.5L217.3,61.6L228.7,56.5L240.0,51.0L251.3,45.5L262.7,40.2L274.0,36.3L285.4,36.1L296.7,41.9L308.1,53.1L319.4,65.9L330.8,76.4L342.1,82.9L353.5,86.1L364.8,87.6L376.1,88.3L387.5,88.9L398.8,89.6L410.2,90.3L421.5,91.1L432.9,91.8L444.2,92.5L455.6,93.0L466.9,93.2L478.3,93.2L489.6,92.9L489.6,164L-9.6,164Z" stroke="#b1bac4" stroke-opacity="0.69"/><path d="M-9.6,92.9L1.7,93.0L13.1,93.1L24.4,92.9L35.8,92.3L47.1,90.9L58.5,88.6L69.8,85.4L81.2,81.6L92.5,77.5L103.9,73.7L115.2,70.7L126.5,68.9L137.9,68.3L149.2,68.6L160.6,69.3L171.9,69.9L183.3,69.6L194.6,68.1L206.0,64.9L217.3,59.9L228.7,53.8L240.0,47.4L251.3,41.5L262.7,36.7L274.0,33.9L285.4,35.2L296.7,42.3L308.1,54.6L319.4,68.1L330.8,79.2L342.1,86.1L353.5,89.5L364.8,91.1L376.1,92.0L387.5,92.6L398.8,93.3L410.2,94.1L421.5,94.9L432.9,95.7L444.2,96.3L455.6,96.8L466.9,97.0L478.3,97.0L489.6,96.7L489.6,164L-9.6,164Z" stroke="#b1bac4" stroke-opacity="0.71"/><path d="M-9.6,96.7L1.7,96.8L13.1,96.8L24.4,96.6L35.8,95.9L47.1,94.4L58.5,91.9L69.8,88.5L81.2,84.4L92.5,80.1L103.9,76.1L115.2,72.9L126.5,70.9L137.9,70.1L149.2,70.3L160.6,70.8L171.9,71.1L183.3,70.5L194.6,68.3L206.0,64.3L217.3,58.3L228.7,51.1L240.0,43.9L251.3,37.8L262.7,33.7L274.0,32.1L285.4,34.9L296.7,43.4L308.1,56.6L319.4,70.8L330.8,82.1L342.1,89.3L353.5,93.0L364.8,94.7L376.1,95.7L387.5,96.4L398.8,97.1L410.2,97.9L421.5,98.7L432.9,99.5L444.2,100.1L455.6,100.6L466.9,100.9L478.3,100.8L489.6,100.5L489.6,164L-9.6,164Z" stroke="#b1bac4" stroke-opacity="0.74"/><path d="M-9.6,100.5L1.7,100.6L13.1,100.6L24.4,100.4L35.8,99.6L47.1,97.9L58.5,95.3L69.8,91.8L81.2,87.5L92.5,82.9L103.9,78.7L115.2,75.3L126.5,73.2L137.9,72.3L149.2,72.3L160.6,72.6L171.9,72.6L183.3,71.5L194.6,68.8L206.0,64.0L217.3,57.1L228.7,48.9L240.0,41.0L251.3,34.9L262.7,31.5L274.0,31.3L285.4,35.6L296.7,45.3L308.1,59.3L319.4,73.8L330.8,85.3L342.1,92.6L353.5,96.4L364.8,98.3L376.1,99.3L387.5,100.1L398.8,100.9L410.2,101.7L421.5,102.5L432.9,103.3L444.2,104.0L455.6,104.5L466.9,104.7L478.3,104.7L489.6,104.4L489.6,164L-9.6,164Z" stroke="#b1bac4" stroke-opacity="0.76"/><path d="M-9.6,104.3L1.7,104.4L13.1,104.4L24.4,104.1L35.8,103.3L47.1,101.6L58.5,98.9L69.8,95.1L81.2,90.7L92.5,86.0L103.9,81.6L115.2,78.1L126.5,75.8L137.9,74.7L149.2,74.6L160.6,74.7L171.9,74.4L183.3,73.0L194.6,69.7L206.0,64.3L217.3,56.6L228.7,47.6L240.0,39.3L251.3,33.3L262.7,30.6L274.0,31.7L285.4,37.4L296.7,48.2L308.1,62.7L319.4,77.3L330.8,88.8L342.1,96.1L353.5,100.0L364.8,101.9L376.1,103.1L387.5,103.9L398.8,104.7L410.2,105.5L421.5,106.4L432.9,107.1L444.2,107.8L455.6,108.3L466.9,108.5L478.3,108.5L489.6,108.2L489.6,164L-9.6,164Z" stroke="#b1bac4" stroke-opacity="0.78"/><path d="M-9.6,108.2L1.7,108.2L13.1,108.2L24.4,107.9L35.8,107.0L47.1,105.3L58.5,102.5L69.8,98.7L81.2,94.1L92.5,89.3L103.9,84.8L115.2,81.2L126.5,78.8L137.9,77.6L149.2,77.3L160.6,77.3L171.9,76.7L183.3,75.0L194.6,71.3L206.0,65.4L217.3,57.1L228.7,47.7L240.0,39.1L251.3,33.3L262.7,31.4L274.0,33.8L285.4,40.7L296.7,52.3L308.1,66.9L319.4,81.3L330.8,92.6L342.1,99.7L353.5,103.6L364.8,105.6L376.1,106.8L387.5,107.7L398.8,108.5L410.2,109.4L421.5,110.2L432.9,111.0L444.2,111.6L455.6,112.1L466.9,112.4L478.3,112.3L489.6,112.0L489.6,164L-9.6,164Z" stroke="#b1bac4" stroke-opacity="0.80"/><path d="M-9.6,112.0L1.7,112.1L13.1,112.1L24.4,111.7L35.8,110.8L47.1,109.1L58.5,106.3L69.8,102.4L81.2,97.9L92.5,93.0L103.9,88.4L115.2,84.7L126.5,82.3L137.9,81.0L149.2,80.6L160.6,80.4L171.9,79.6L183.3,77.6L194.6,73.7L206.0,67.5L217.3,59.0L228.7,49.4L240.0,40.9L251.3,35.4L262.7,34.3L274.0,37.6L285.4,45.5L296.7,57.5L308.1,71.9L319.4,85.9L330.8,96.7L342.1,103.5L353.5,107.3L364.8,109.3L376.1,110.6L387.5,111.5L398.8,112.3L410.2,113.2L421.5,114.0L432.9,114.8L444.2,115.5L455.6,116.0L466.9,116.2L478.3,116.2L489.6,115.9L489.6,164L-9.6,164Z" stroke="#b1bac4" stroke-opacity="0.83"/><path d="M-9.6,115.8L1.7,115.9L13.1,115.9L24.4,115.6L35.8,114.7L47.1,112.9L58.5,110.2L69.8,106.4L81.2,101.8L92.5,96.9L103.9,92.4L115.2,88.7L126.5,86.2L137.9,84.9L149.2,84.4L160.6,84.1L171.9,83.2L183.3,81.1L194.6,77.1L206.0,70.8L217.3,62.4L228.7,52.9L240.0,44.7L251.3,39.7L262.7,39.3L274.0,43.4L285.4,51.8L296.7,63.8L308.1,77.7L319.4,90.9L330.8,101.1L342.1,107.5L353.5,111.2L364.8,113.1L376.1,114.4L387.5,115.3L398.8,116.1L410.2,117.0L421.5,117.8L432.9,118.6L444.2,119.3L455.6,119.8L466.9,120.0L478.3,120.0L489.6,119.7L489.6,164L-9.6,164Z" stroke="#b1bac4" stroke-opacity="0.85"/></g><text x="460" y="135" font-size="12" fill="#6e7681" text-anchor="end">2026-10-06</text></svg>
