<svg xmlns="http://www.w3.org/2000/svg" width="360" height="414" viewBox="0 0 360 414" role="img" aria-labelledby="title desc"><title id="title">Recent activity from the last seven days</title><desc id="desc">Total time 36h 31m</desc><style>text{font-family:-apple-system,BlinkMacSystemFont,"Segoe UI","Noto Sans",sans-serif;font-variant-numeric:tabular-nums}</style><rect x=".5" y=".5" width="359" height="413" rx="10" fill="#0d1117" stroke="#3d444d"/><text x="180" y="50" font-size="26" fill="#f0f6fc" font-weight="600" text-anchor="middle">Last 7 days</text><text x="180" y="88" font-size="18" fill="#b1bac4" text-anchor="middle">Activity time  36h 31m</text><text x="28" y="142" font-size="18" fill="#f0f6fc" >TypeScript</text><rect x="28" y="158" width="304" height="8" rx="4" fill="#212830"/><rect x="28" y="158" width="79.53" height="8" rx="4" fill="#3fb950"/><text x="332" y="142" font-size="18" fill="#b1bac4" text-anchor="end">26.2%</text><text x="28" y="200" font-size="18" fill="#f0f6fc" >Other</text><rect x="28" y="216" width="304" height="8" rx="4" fill="#212830"/><rect x="28" y="216" width="70.38" height="8" rx="4" fill="#3fb950"/><text x="332" y="200" font-size="18" fill="#b1bac4" text-anchor="end">23.2%</text><text x="28" y="258" font-size="18" fill="#f0f6fc" >Markdown</text><rect x="28" y="274" width="304" height="8" rx="4" fill="#212830"/><rect x="28" y="274" width="42.56" height="8" rx="4" fill="#3fb950"/><text x="332" y="258" font-size="18" fill="#b1bac4" text-anchor="end">14.0%</text><text x="28" y="316" font-size="18" fill="#f0f6fc" >Vue</text><rect x="28" y="332" width="304" height="8" rx="4" fill="#212830"/><rect x="28" y="332" width="30.89" height="8" rx="4" fill="#3fb950"/><text x="332" y="316" font-size="18" fill="#b1bac4" text-anchor="end">10.2%</text><text x="180" y="388" font-size="14" fill="#b1bac4" text-anchor="middle">2026-09-18 — 2026-09-24 · Includes today</text></svg>
