<svg xmlns="http://www.w3.org/2000/svg" width="640" height="350" viewBox="0 0 640 350" role="img" aria-labelledby="title desc"><title id="title">最近七天的編程活動</title><desc id="desc">總時長 29h 39m</desc><style>text{font-family:-apple-system,BlinkMacSystemFont,"Segoe UI","Noto Sans",sans-serif;font-variant-numeric:tabular-nums}</style><rect x=".5" y=".5" width="639" height="349" rx="10" fill="#0d1117" stroke="#3d444d"/><text x="320" y="50" font-size="26" fill="#f0f6fc" font-weight="600" text-anchor="middle">最近七天</text><text x="320" y="88" font-size="18" fill="#b1bac4" text-anchor="middle">編程時間  29h 39m</text><text x="40" y="142" font-size="18" fill="#f0f6fc" >Vue</text><rect x="218" y="131" width="270" height="8" rx="4" fill="#212830"/><rect x="218" y="131" width="180.94" height="8" rx="4" fill="#3fb950"/><text x="600" y="142" font-size="18" fill="#b1bac4" text-anchor="end">67.0%</text><text x="40" y="184" font-size="18" fill="#f0f6fc" >Markdown</text><rect x="218" y="173" width="270" height="8" rx="4" fill="#212830"/><rect x="218" y="173" width="39.66" height="8" rx="4" fill="#3fb950"/><text x="600" y="184" font-size="18" fill="#b1bac4" text-anchor="end">14.7%</text><text x="40" y="226" font-size="18" fill="#f0f6fc" >TypeScript</text><rect x="218" y="215" width="270" height="8" rx="4" fill="#212830"/><rect x="218" y="215" width="21.84" height="8" rx="4" fill="#3fb950"/><text x="600" y="226" font-size="18" fill="#b1bac4" text-anchor="end">8.1%</text><text x="40" y="268" font-size="18" fill="#f0f6fc" >WGSL</text><rect x="218" y="257" width="270" height="8" rx="4" fill="#212830"/><rect x="218" y="257" width="12.82" height="8" rx="4" fill="#3fb950"/><text x="600" y="268" font-size="18" fill="#b1bac4" text-anchor="end">4.7%</text><text x="320" y="324" font-size="14" fill="#b1bac4" text-anchor="middle">2026-09-03 — 2026-09-09 · 含今天</text></svg>
