<svg xmlns="http://www.w3.org/2000/svg" width="640" height="350" viewBox="0 0 640 350" role="img" aria-labelledby="title desc"><title id="title">Recent activity from the last seven days</title><desc id="desc">Total time 25h 36m</desc><style>text{font-family:-apple-system,BlinkMacSystemFont,"Segoe UI","Noto Sans",sans-serif;font-variant-numeric:tabular-nums}</style><rect x=".5" y=".5" width="639" height="349" rx="10" fill="#ffffff" stroke="#d1d9e0"/><text x="320" y="50" font-size="26" fill="#1f2328" font-weight="600" text-anchor="middle">Last 7 days</text><text x="320" y="88" font-size="18" fill="#59636e" text-anchor="middle">Activity time  25h 36m</text><text x="40" y="142" font-size="18" fill="#1f2328" >Vue</text><rect x="218" y="131" width="270" height="8" rx="4" fill="#eff2f5"/><rect x="218" y="131" width="105.89" height="8" rx="4" fill="#2da44e"/><text x="600" y="142" font-size="18" fill="#59636e" text-anchor="end">39.2%</text><text x="40" y="184" font-size="18" fill="#1f2328" >Markdown</text><rect x="218" y="173" width="270" height="8" rx="4" fill="#eff2f5"/><rect x="218" y="173" width="62.97" height="8" rx="4" fill="#2da44e"/><text x="600" y="184" font-size="18" fill="#59636e" text-anchor="end">23.3%</text><text x="40" y="226" font-size="18" fill="#1f2328" >TypeScript</text><rect x="218" y="215" width="270" height="8" rx="4" fill="#eff2f5"/><rect x="218" y="215" width="48.25" height="8" rx="4" fill="#2da44e"/><text x="600" y="226" font-size="18" fill="#59636e" text-anchor="end">17.9%</text><text x="40" y="268" font-size="18" fill="#1f2328" >Other</text><rect x="218" y="257" width="270" height="8" rx="4" fill="#eff2f5"/><rect x="218" y="257" width="26.36" height="8" rx="4" fill="#2da44e"/><text x="600" y="268" font-size="18" fill="#59636e" text-anchor="end">9.8%</text><text x="320" y="324" font-size="14" fill="#59636e" text-anchor="middle">2026-09-06 — 2026-09-12 · Includes today</text></svg>
