<svg xmlns="http://www.w3.org/2000/svg" width="880" height="464" viewBox="0 0 880 464" role="img" aria-labelledby="title desc"><title id="title">Weekly activity snapshot</title><desc id="desc">Recent activity from the last seven days;Total time 12h 20m;Vue 8h 17m 67.2%;Markdown 2h 37m 21.3%;Other 24m 3.3%;JSON 20m 2.8%;Other 40m 5.5%;2026-09-06 3h 13m;2026-09-07 7h 03m;2026-09-08 2h 04m;2026-09-09 &lt;1m;2026-09-10 &lt;1m;2026-09-11 &lt;1m;2026-09-12 &lt;1m;ai_input_tokens: 16257548.0;ai_output_tokens: 743396.0;ai_additions: 1369.0;ai_prompt_events_total: 493.0;ai_model_total_cost: 297.568588</desc><style>text{font-family:-apple-system,BlinkMacSystemFont,"Segoe UI","Noto Sans",sans-serif;font-variant-numeric:tabular-nums}.number{font-family:ui-monospace,"SFMono-Regular",Consolas,monospace}</style><rect x="0.5" y="0.5" width="879.00" height="463.00" rx="12" fill="#ffffff" stroke="#d1d9e0"/><text x="28" y="42" font-size="26" fill="#1f2328" font-weight="650">Last 7 days</text><text x="852" y="40" font-size="17" fill="#59636e" text-anchor="end">Activity snapshot</text><text x="28" y="70" font-size="16" fill="#59636e" >2026-09-06 — 2026-09-12</text><text x="852" y="70" font-size="15" fill="#59636e" text-anchor="end">Asia/Hong_Kong · Includes today</text><path d="M28,88H852" fill="none" stroke="#d1d9e0"/><text x="28" y="128" font-size="30" fill="#1f2328" font-weight="650" class="number">12h 20m</text><text x="28" y="155" font-size="16" fill="#59636e" >Active time · 3 / 7 days tracked</text><path d="M28,283H314" fill="none" stroke="#d1d9e0"/><rect x="35.354285714285716" y="241.4521533316243" width="26.15" height="41.55" rx="3" fill="#238636" /><text x="48.42857142857143" y="307" font-size="14" fill="#59636e" text-anchor="middle">09/06</text><rect x="76.21142857142857" y="192.0" width="26.15" height="91.00" rx="3" fill="#238636" /><text x="89.28571428571428" y="307" font-size="14" fill="#59636e" text-anchor="middle">09/07</text><rect x="117.06857142857142" y="256.25892479317264" width="26.15" height="26.74" rx="3" fill="#238636" /><text x="130.14285714285714" y="307" font-size="14" fill="#59636e" text-anchor="middle">09/08</text><rect x="157.92571428571426" y="281" width="26.15" height="2.00" rx="3" fill="#238636" /><text x="170.99999999999997" y="307" font-size="14" fill="#59636e" text-anchor="middle">09/09</text><rect x="198.78285714285713" y="281" width="26.15" height="2.00" rx="3" fill="#238636" /><text x="211.85714285714283" y="307" font-size="14" fill="#59636e" text-anchor="middle">09/10</text><rect x="239.64" y="281" width="26.15" height="2.00" rx="3" fill="#238636" /><text x="252.7142857142857" y="307" font-size="14" fill="#59636e" text-anchor="middle">09/11</text><rect x="280.4971428571428" y="281" width="26.15" height="2.00" rx="3" fill="#f6f8fa" stroke="#238636"/><text x="293.57142857142856" y="307" font-size="14" fill="#59636e" text-anchor="middle">09/12</text><text x="314" y="179" font-size="14" fill="#59636e" text-anchor="end">Peak 7h 03m</text><text x="360" y="124" font-size="18" fill="#1f2328" font-weight="600">Language distribution</text><text x="852" y="124" font-size="14" fill="#59636e" text-anchor="end">Time / share</text><rect x="360" y="145" width="7.00" height="7.00" rx="2" fill="#238636" /><text x="377" y="156" font-size="18" fill="#1f2328" >Vue</text><text x="766" y="156" font-size="16" fill="#59636e" text-anchor="end" class="number">8h 17m</text><text x="852" y="156" font-size="16" fill="#1f2328" text-anchor="end" class="number">67.2%</text><rect x="377" y="164" width="475.00" height="3.00" rx="1.5" fill="#eff2f5" /><rect x="377" y="164" width="319.03" height="3.00" rx="1.5" fill="#238636" /><rect x="360" y="179" width="7.00" height="7.00" rx="2" fill="#0969da" /><text x="377" y="190" font-size="18" fill="#1f2328" >Markdown</text><text x="766" y="190" font-size="16" fill="#59636e" text-anchor="end" class="number">2h 37m</text><text x="852" y="190" font-size="16" fill="#1f2328" text-anchor="end" class="number">21.3%</text><rect x="377" y="198" width="475.00" height="3.00" rx="1.5" fill="#eff2f5" /><rect x="377" y="198" width="101.10" height="3.00" rx="1.5" fill="#0969da" /><rect x="360" y="213" width="7.00" height="7.00" rx="2" fill="#8250df" /><text x="377" y="224" font-size="18" fill="#1f2328" >Other</text><text x="766" y="224" font-size="16" fill="#59636e" text-anchor="end" class="number">24m</text><text x="852" y="224" font-size="16" fill="#1f2328" text-anchor="end" class="number">3.3%</text><rect x="377" y="232" width="475.00" height="3.00" rx="1.5" fill="#eff2f5" /><rect x="377" y="232" width="15.77" height="3.00" rx="1.5" fill="#8250df" /><rect x="360" y="247" width="7.00" height="7.00" rx="2" fill="#9a6700" /><text x="377" y="258" font-size="18" fill="#1f2328" >JSON</text><text x="766" y="258" font-size="16" fill="#59636e" text-anchor="end" class="number">20m</text><text x="852" y="258" font-size="16" fill="#1f2328" text-anchor="end" class="number">2.8%</text><rect x="377" y="266" width="475.00" height="3.00" rx="1.5" fill="#eff2f5" /><rect x="377" y="266" width="13.15" height="3.00" rx="1.5" fill="#9a6700" /><rect x="360" y="281" width="7.00" height="7.00" rx="2" fill="#59636e" /><text x="377" y="292" font-size="18" fill="#1f2328" >Other</text><text x="766" y="292" font-size="16" fill="#59636e" text-anchor="end" class="number">40m</text><text x="852" y="292" font-size="16" fill="#1f2328" text-anchor="end" class="number">5.5%</text><rect x="377" y="300" width="475.00" height="3.00" rx="1.5" fill="#eff2f5" /><rect x="377" y="300" width="25.95" height="3.00" rx="1.5" fill="#59636e" /><rect x="1" y="340" width="878.00" height="111.00" rx="0" fill="#f6f8fa" /><rect x="1" y="439" width="878.00" height="24.00" rx="11" fill="#f6f8fa" /><text x="28" y="371" font-size="20" fill="#1f2328" font-weight="600">AI collaboration</text><text x="852" y="370" font-size="14" fill="#59636e" text-anchor="end">Same reporting period</text><text x="28" y="412" font-size="26" fill="#1f2328" class="number" font-weight="600">16.26M / 743.4K</text><text x="28" y="441" font-size="16" fill="#59636e" >Input / output tokens</text><text x="306" y="412" font-size="26" fill="#1f2328" class="number" font-weight="600">1.37K / 493</text><text x="306" y="441" font-size="16" fill="#59636e" >AI additions / prompt count</text><text x="584" y="412" font-size="26" fill="#1f2328" class="number" font-weight="600">$297.57</text><text x="584" y="441" font-size="16" fill="#59636e" >AI compute estimate · API pricing</text></svg>
