<svg xmlns="http://www.w3.org/2000/svg" width="880" height="464" viewBox="0 0 880 464" role="img" aria-labelledby="title desc"><title id="title">Weekly activity snapshot</title><desc id="desc">Recent activity from the last seven days;Total time 25h 34m;Other 17h 39m 69.0%;TypeScript 4h 31m 17.7%;Markdown 2h 08m 8.4%;Rust 1h 14m 4.9%;2026-09-15 16m;2026-09-16 16m;2026-09-17 1h 19m;2026-09-18 5h 27m;2026-09-19 1h 50m;2026-09-20 13h 18m;2026-09-21 3h 06m;ai_input_tokens: 29401179.0;ai_output_tokens: 3247088.0;ai_additions: 6446.0;ai_prompt_events_total: 950.0;ai_model_total_cost: 1182.902314</desc><style>text{font-family:-apple-system,BlinkMacSystemFont,"Segoe UI","Noto Sans",sans-serif;font-variant-numeric:tabular-nums}.number{font-family:ui-monospace,"SFMono-Regular",Consolas,monospace}</style><rect x="0.5" y="0.5" width="879.00" height="463.00" rx="12" fill="none" stroke="#d1d9e0"/><text x="28" y="42" font-size="26" fill="#1f2328" font-weight="650">Last 7 days</text><text x="852" y="40" font-size="17" fill="#59636e" text-anchor="end">Activity snapshot</text><text x="28" y="70" font-size="16" fill="#59636e" >2026-09-15 — 2026-09-21</text><text x="852" y="70" font-size="15" fill="#59636e" text-anchor="end">Asia/Hong_Kong · Includes today</text><path d="M28,88H852" fill="none" stroke="#d1d9e0"/><text x="28" y="128" font-size="30" fill="#1f2328" font-weight="650" class="number">25h 34m</text><text x="28" y="155" font-size="16" fill="#59636e" >Active time · 7 / 7 days tracked</text><path d="M28,283H314" fill="none" stroke="#d1d9e0"/><rect x="35.354285714285716" y="281" width="26.15" height="2.00" rx="3" fill="#238636" /><text x="48.42857142857143" y="307" font-size="14" fill="#59636e" text-anchor="middle">09/15</text><rect x="76.21142857142857" y="281" width="26.15" height="2.00" rx="3" fill="#238636" /><text x="89.28571428571428" y="307" font-size="14" fill="#59636e" text-anchor="middle">09/16</text><rect x="117.06857142857142" y="273.95415479140104" width="26.15" height="9.05" rx="3" fill="#238636" /><text x="130.14285714285714" y="307" font-size="14" fill="#59636e" text-anchor="middle">09/17</text><rect x="157.92571428571426" y="245.72550176970006" width="26.15" height="37.27" rx="3" fill="#238636" /><text x="170.99999999999997" y="307" font-size="14" fill="#59636e" text-anchor="middle">09/18</text><rect x="198.78285714285713" y="270.43618560306794" width="26.15" height="12.56" rx="3" fill="#238636" /><text x="211.85714285714283" y="307" font-size="14" fill="#59636e" text-anchor="middle">09/19</text><rect x="239.64" y="192.0" width="26.15" height="91.00" rx="3" fill="#238636" /><text x="252.7142857142857" y="307" font-size="14" fill="#59636e" text-anchor="middle">09/20</text><rect x="280.4971428571428" y="261.763993570144" width="26.15" height="21.24" rx="3" fill="#f6f8fa" stroke="#238636"/><text x="293.57142857142856" y="307" font-size="14" fill="#59636e" text-anchor="middle">09/21</text><text x="314" y="179" font-size="14" fill="#59636e" text-anchor="end">Peak 13h 18m</text><text x="360" y="124" font-size="18" fill="#1f2328" font-weight="600">Language distribution</text><text x="852" y="124" font-size="14" fill="#59636e" text-anchor="end">Time / share</text><rect x="360" y="145" width="7.00" height="7.00" rx="2" fill="#238636" /><text x="377" y="156" font-size="18" fill="#1f2328" >Other</text><text x="766" y="156" font-size="16" fill="#59636e" text-anchor="end" class="number">17h 39m</text><text x="852" y="156" font-size="16" fill="#1f2328" text-anchor="end" class="number">69.0%</text><rect x="377" y="164" width="475.00" height="3.00" rx="1.5" fill="#eff2f5" /><rect x="377" y="164" width="327.98" height="3.00" rx="1.5" fill="#238636" /><rect x="360" y="179" width="7.00" height="7.00" rx="2" fill="#0969da" /><text x="377" y="190" font-size="18" fill="#1f2328" >TypeScript</text><text x="766" y="190" font-size="16" fill="#59636e" text-anchor="end" class="number">4h 31m</text><text x="852" y="190" font-size="16" fill="#1f2328" text-anchor="end" class="number">17.7%</text><rect x="377" y="198" width="475.00" height="3.00" rx="1.5" fill="#eff2f5" /><rect x="377" y="198" width="84.02" height="3.00" rx="1.5" fill="#0969da" /><rect x="360" y="213" width="7.00" height="7.00" rx="2" fill="#8250df" /><text x="377" y="224" font-size="18" fill="#1f2328" >Markdown</text><text x="766" y="224" font-size="16" fill="#59636e" text-anchor="end" class="number">2h 08m</text><text x="852" y="224" font-size="16" fill="#1f2328" text-anchor="end" class="number">8.4%</text><rect x="377" y="232" width="475.00" height="3.00" rx="1.5" fill="#eff2f5" /><rect x="377" y="232" width="39.83" height="3.00" rx="1.5" fill="#8250df" /><rect x="360" y="247" width="7.00" height="7.00" rx="2" fill="#9a6700" /><text x="377" y="258" font-size="18" fill="#1f2328" >Rust</text><text x="766" y="258" font-size="16" fill="#59636e" text-anchor="end" class="number">1h 14m</text><text x="852" y="258" font-size="16" fill="#1f2328" text-anchor="end" class="number">4.9%</text><rect x="377" y="266" width="475.00" height="3.00" rx="1.5" fill="#eff2f5" /><rect x="377" y="266" width="23.18" height="3.00" rx="1.5" fill="#9a6700" /><rect x="1" y="340" width="878.00" height="111.00" rx="0" fill="#f6f8fa" /><rect x="1" y="439" width="878.00" height="24.00" rx="11" fill="#f6f8fa" /><text x="28" y="371" font-size="20" fill="#1f2328" font-weight="600">AI collaboration</text><text x="852" y="370" font-size="14" fill="#59636e" text-anchor="end">Same reporting period</text><text x="28" y="412" font-size="26" fill="#1f2328" class="number" font-weight="600">29.4M / 3.25M</text><text x="28" y="441" font-size="16" fill="#59636e" >Input / output tokens</text><text x="306" y="412" font-size="26" fill="#1f2328" class="number" font-weight="600">6.45K / 950</text><text x="306" y="441" font-size="16" fill="#59636e" >AI additions / prompt count</text><text x="584" y="412" font-size="26" fill="#1f2328" class="number" font-weight="600">$1,182.90</text><text x="584" y="441" font-size="16" fill="#59636e" >AI compute estimate · API pricing</text></svg>
